<svg width="24" height="24" viewBox="0 0 24 24" fill="none" xmlns="http://www.w3.org/2000/svg">
<path fill-rule="evenodd" clip-rule="evenodd" d="M4.45605 7.135C4.45605 9.966 6.76005 12.27 9.59205 12.27H9.62605C10.9931 12.265 12.2781 11.728 13.2401 10.757C14.2041 9.787 14.7331 8.499 14.7271 7.135C14.7271 4.304 12.4231 2 9.59205 2C6.76005 2 4.45605 4.304 4.45605 7.135ZM5.95605 7.135C5.95605 5.131 7.58705 3.5 9.59205 3.5C11.5961 3.5 13.2271 5.131 13.2271 7.138C13.2311 8.104 12.8581 9.015 12.1761 9.7C11.4951 10.387 10.5871 10.766 9.62305 10.77H9.59205C7.58705 10.77 5.95605 9.139 5.95605 7.135Z" fill="#212121"/>
<path fill-rule="evenodd" clip-rule="evenodd" d="M2 17.519C2 21.057 7.516 21.057 9.592 21.057C11.47 21.057 17.184 21.057 17.184 17.499C17.184 14.324 12.851 13.957 9.592 13.957C7.714 13.957 2 13.957 2 17.519ZM3.5 17.519C3.5 15.814 6.813 15.457 9.592 15.457C13.634 15.457 15.684 16.144 15.684 17.499C15.684 18.864 13.634 19.557 9.592 19.557C5.55 19.557 3.5 18.871 3.5 17.519Z" fill="#212121"/>
<path d="M16.4827 11.1318C16.1147 11.1318 15.7937 10.8608 15.7407 10.4858C15.6837 10.0758 15.9687 9.69577 16.3787 9.63877C17.6267 9.46377 18.5687 8.38077 18.5707 7.11877C18.5707 5.86477 17.6727 4.80677 16.4377 4.60477C16.0287 4.53677 15.7517 4.15177 15.8187 3.74277C15.8857 3.33377 16.2727 3.05877 16.6797 3.12377C18.6447 3.44577 20.0707 5.12677 20.0707 7.11977C20.0667 9.12477 18.5697 10.8468 16.5877 11.1248C16.5527 11.1298 16.5177 11.1318 16.4827 11.1318Z" fill="#212121"/>
<path d="M19.1947 17.9769C19.3077 18.2759 19.5927 18.4609 19.8957 18.4609C19.9847 18.4609 20.0747 18.4449 20.1617 18.4119C21.6647 17.8429 21.9797 16.8559 21.9797 16.1269C21.9797 15.1479 21.4127 13.8949 18.7067 13.4899C18.3047 13.4369 17.9157 13.7119 17.8537 14.1219C17.7927 14.5309 18.0757 14.9129 18.4857 14.9749C19.8087 15.1719 20.4797 15.5599 20.4797 16.1269C20.4797 16.2949 20.4797 16.6879 19.6297 17.0099C19.2427 17.1559 19.0477 17.5899 19.1947 17.9769Z" fill="#212121"/>
</svg>
