<svg width="24" height="24" viewBox="0 0 24 24" fill="none" xmlns="http://www.w3.org/2000/svg">
<mask id="mask0_2128_44999" style="mask-type:luminance" maskUnits="userSpaceOnUse" x="7" y="2" width="10" height="9">
<path fill-rule="evenodd" clip-rule="evenodd" d="M7.21094 2H16.2729V10.3057H7.21094V2Z" fill="white"/>
</mask>
<g mask="url(#mask0_2128_44999)">
<path fill-rule="evenodd" clip-rule="evenodd" d="M15.5229 10.3058C15.1089 10.3058 14.7729 9.96976 14.7729 9.55576V6.52376C14.7729 4.85676 13.4179 3.49976 11.7509 3.49976C10.9399 3.52776 10.1799 3.80776 9.60594 4.37576C9.03194 4.94476 8.71394 5.70176 8.71094 6.50876V9.55576C8.71094 9.96976 8.37494 10.3058 7.96094 10.3058C7.54694 10.3058 7.21094 9.96976 7.21094 9.55576V6.52376C7.21594 5.29476 7.69094 4.16076 8.54994 3.31076C9.40794 2.45976 10.5599 2.03476 11.7539 1.99976C14.2449 1.99976 16.2729 4.02976 16.2729 6.52376V9.55576C16.2729 9.96976 15.9369 10.3058 15.5229 10.3058Z" fill="#212121"/>
</g>
<mask id="mask1_2128_44999" style="mask-type:luminance" maskUnits="userSpaceOnUse" x="2" y="6" width="20" height="16">
<path fill-rule="evenodd" clip-rule="evenodd" d="M2 6.47461H21.4998V21.9996H2V6.47461Z" fill="white"/>
</mask>
<g mask="url(#mask1_2128_44999)">
<path fill-rule="evenodd" clip-rule="evenodd" d="M7.008 7.97461C5.074 7.97461 3.5 9.54661 3.5 11.4796V16.9956C3.5 18.9276 5.074 20.4996 7.008 20.4996H16.492C18.426 20.4996 20 18.9276 20 16.9956V11.4796C20 9.54661 18.426 7.97461 16.492 7.97461H7.008ZM16.492 21.9996H7.008C4.247 21.9996 2 19.7546 2 16.9956V11.4796C2 8.71961 4.247 6.47461 7.008 6.47461H16.492C19.254 6.47461 21.5 8.71961 21.5 11.4796V16.9956C21.5 19.7546 19.254 21.9996 16.492 21.9996Z" fill="#212121"/>
</g>
</svg>
