<svg width="24" height="24" viewBox="0 0 24 24" fill="none" xmlns="http://www.w3.org/2000/svg">
<path d="M20.7846 3.21967C21.0775 2.92678 21.5524 2.92678 21.8453 3.21967C22.1115 3.48594 22.1357 3.9026 21.9179 4.19621L21.8453 4.28033L15.8453 10.2803C15.5524 10.5732 15.0775 10.5732 14.7846 10.2803C14.5183 10.0141 14.4941 9.5974 14.712 9.30379L14.7846 9.21967L20.7846 3.21967Z" fill="#212121"/>
<path d="M14.7846 3.21967C15.0509 2.9534 15.4675 2.9292 15.7612 3.14705L15.8453 3.21967L21.8453 9.21967C22.1382 9.51256 22.1382 9.98744 21.8453 10.2803C21.579 10.5466 21.1623 10.5708 20.8687 10.3529L20.7846 10.2803L14.7846 4.28033C14.4917 3.98744 14.4917 3.51256 14.7846 3.21967Z" fill="#212121"/>
<path fill-rule="evenodd" clip-rule="evenodd" d="M2.47085 3.82955L2.5434 3.75374C4.47082 1.82614 5.72597 1.31521 7.06519 2.08532C7.45043 2.30685 7.81158 2.61693 8.30267 3.11571L9.80904 4.67773C10.6411 5.58563 10.8302 6.45648 10.5593 7.47635L10.522 7.61137L10.4805 7.74562L10.2792 8.33644C9.84815 9.66142 10.0281 10.409 11.5616 11.9421C13.1563 13.5364 13.9007 13.6668 15.3279 13.1681L15.5822 13.0797L15.8898 12.9798L16.0244 12.9424C17.1084 12.6532 18.0242 12.884 18.9953 13.8545L20.2091 15.0269L20.5663 15.3783C20.9625 15.7822 21.2242 16.1023 21.4176 16.4406C22.1829 17.7794 21.6715 19.0338 19.6885 21.0094L19.4998 21.2006C19.2037 21.4859 18.9271 21.6903 18.5207 21.8833C17.8386 22.2072 17.0327 22.3293 16.0963 22.199C13.7889 21.8781 10.8623 20.0575 7.15401 16.3502C6.85214 16.0484 6.56303 15.7524 6.28638 15.4622L5.7496 14.8893C0.719752 9.42454 0.276017 6.06758 2.3373 3.9622L2.47085 3.82955ZM7.08854 4.02262C6.76275 3.70143 6.52609 3.50564 6.31745 3.38566C5.85592 3.12026 5.35763 3.23244 4.43542 4.02617L4.14566 4.28504C4.09511 4.3317 4.04341 4.38013 3.99051 4.43038L3.65824 4.75401L3.6283 4.79142L3.40304 5.01773C2.85869 5.57374 2.60084 6.25234 2.82303 7.41937C3.18764 9.33439 4.85655 11.9322 8.21453 15.2894C11.7134 18.7873 14.3793 20.4458 16.3029 20.7133C17.4244 20.8693 17.9963 20.5977 18.5797 20.0001L19.0245 19.5512C19.2331 19.3329 19.4114 19.135 19.5619 18.9543L19.7672 18.6956C20.2918 17.9968 20.3398 17.5775 20.1154 17.185C20.03 17.0356 19.9058 16.8719 19.725 16.6717L19.4798 16.4127L19.3347 16.2675L17.8034 14.7889C17.2917 14.317 16.942 14.2501 16.4111 14.3917L16.2578 14.4358L15.6235 14.6511C13.7834 15.2454 12.4559 14.9572 10.5011 13.0029C8.47642 10.9787 8.23897 9.62707 8.91735 7.68087L8.96087 7.55581L9.08121 7.19323L9.14036 6.96213C9.24526 6.45916 9.1255 6.10847 8.58482 5.56771C8.56255 5.54544 8.53768 5.52036 8.5106 5.4929L7.08854 4.02262Z" fill="#212121"/>
</svg>
