<svg width="24" height="24" viewBox="0 0 24 24" fill="none" xmlns="http://www.w3.org/2000/svg">
<path fill-rule="evenodd" clip-rule="evenodd" d="M7.19382 4.83146C7.59577 4.10093 8.03303 3.61258 8.68188 3.35433C9.87089 2.88155 14.1293 2.88155 15.3174 3.35442C15.9659 3.61254 16.4033 4.1008 16.8055 4.83118L17.2578 5.69833C17.2681 5.71551 17.2776 5.73062 17.2862 5.74362L17.3246 5.79613C17.5306 6.02063 17.8754 6.15626 18.103 6.15626C20.255 6.15626 22 7.90085 22 10.0523V15.8473C22 18.5915 19.7742 20.8173 17.03 20.8173H6.97C4.2251 20.8173 2 18.5918 2 15.8473V10.0523C2 7.90085 3.74498 6.15626 5.897 6.15626C6.12377 6.15626 6.46908 6.02043 6.67544 5.79613C6.67956 5.79164 6.68494 5.78495 6.69145 5.77609L6.74287 5.69721L7.19382 4.83146ZM15.4917 5.55484C15.2417 5.101 15.0158 4.84885 14.7626 4.74809L14.6433 4.70842C13.6142 4.41754 10.0344 4.43076 9.23635 4.74809C8.98334 4.84879 8.75768 5.10081 8.50802 5.55456L8.12316 6.29866L8.02843 6.47009C7.94936 6.60161 7.87026 6.71264 7.77995 6.81105C7.27349 7.36155 6.52425 7.65626 5.897 7.65626L5.7329 7.66179C4.48575 7.74611 3.5 8.78447 3.5 10.0523V15.8473C3.5 17.7634 5.05359 19.3173 6.97 19.3173H17.03C18.9458 19.3173 20.5 17.763 20.5 15.8473V10.0523C20.5 8.72935 19.4267 7.65626 18.103 7.65626L17.9289 7.64898C17.3403 7.60055 16.6793 7.31142 16.2194 6.81038C16.1303 6.71328 16.0517 6.60304 15.9731 6.47263C15.9618 6.45392 15.9478 6.42929 15.9317 6.40014L15.8156 6.1824L15.4917 5.55484Z" fill="#212121"/>
<path fill-rule="evenodd" clip-rule="evenodd" d="M8.0708 13.128C8.0708 10.9578 9.82959 9.19897 11.9998 9.19897C14.17 9.19897 15.9288 10.9578 15.9288 13.128C15.9288 15.2982 14.17 17.057 11.9998 17.057C9.82959 17.057 8.0708 15.2982 8.0708 13.128ZM14.4288 13.128C14.4288 11.7862 13.3416 10.699 11.9998 10.699C10.658 10.699 9.5708 11.7862 9.5708 13.128C9.5708 14.4698 10.658 15.557 11.9998 15.557C13.3416 15.557 14.4288 14.4698 14.4288 13.128Z" fill="#212121"/>
<path d="M17.5041 8.5C18.0564 8.5 18.5041 8.94772 18.5041 9.5C18.5041 10.0128 18.1181 10.4355 17.6207 10.4933L17.5041 10.5C16.9428 10.5 16.4951 10.0523 16.4951 9.5C16.4951 8.98716 16.8812 8.56449 17.3785 8.50673L17.5041 8.5Z" fill="#212121"/>
</svg>
