<svg width="24" height="24" viewBox="0 0 24 24" fill="none" xmlns="http://www.w3.org/2000/svg">
<mask id="mask0_2128_44952" style="mask-type:luminance" maskUnits="userSpaceOnUse" x="2" y="2" width="21" height="21">
<path fill-rule="evenodd" clip-rule="evenodd" d="M2 2.00024H22.0027V22.0012H2V2.00024Z" fill="white"/>
</mask>
<g mask="url(#mask0_2128_44952)">
<path fill-rule="evenodd" clip-rule="evenodd" d="M10.9447 20.0756C11.5347 20.6516 12.4847 20.6446 13.0707 20.0556L13.7927 19.3356C14.3527 18.7766 15.1267 18.4576 15.9157 18.4576H16.9457C17.7797 18.4576 18.4577 17.7796 18.4577 16.9466V15.9176C18.4577 15.1166 18.7677 14.3636 19.3337 13.7966L20.0537 13.0756C20.3467 12.7816 20.5037 12.4006 20.5027 11.9966C20.5017 11.5936 20.3427 11.2146 20.0557 10.9286L19.3347 10.2066C18.7677 9.63563 18.4577 8.88363 18.4577 8.08263V7.05563C18.4577 6.22163 17.7797 5.54363 16.9457 5.54363H15.9177C15.1167 5.54363 14.3637 5.23263 13.7967 4.66963L13.0747 3.94663C12.4737 3.35163 11.5147 3.35463 10.9277 3.94563L10.2087 4.66663C9.63472 5.23363 8.88172 5.54363 8.08372 5.54363H7.05472C6.22172 5.54463 5.54372 6.22263 5.54372 7.05563V8.08063C5.54372 8.88163 5.23272 9.63463 4.66872 10.2026L3.95872 10.9136C3.95172 10.9216 3.94472 10.9276 3.93772 10.9346C3.35072 11.5256 3.35372 12.4846 3.94472 13.0716L4.66672 13.7936C5.23272 14.3616 5.54372 15.1146 5.54372 15.9156V16.9466C5.54372 17.7796 6.22072 18.4576 7.05472 18.4576H8.08172C8.88372 18.4586 9.63672 18.7696 10.2037 19.3346L10.9247 20.0536C10.9307 20.0606 10.9377 20.0676 10.9447 20.0756ZM11.9987 22.0016C11.2317 22.0016 10.4647 21.7116 9.87772 21.1296C9.86972 21.1216 9.86172 21.1136 9.85372 21.1046L9.14372 20.3956C8.86072 20.1146 8.48272 19.9586 8.08072 19.9576H7.05472C5.39372 19.9576 4.04372 18.6066 4.04372 16.9466V15.9156C4.04372 15.5136 3.88672 15.1366 3.60472 14.8526L2.88572 14.1346C1.71772 12.9726 1.70372 11.0806 2.85072 9.90063C2.85972 9.89163 2.86872 9.88263 2.87772 9.87363L3.60572 9.14363C3.88672 8.86063 4.04372 8.48163 4.04372 8.08063V7.05563C4.04372 5.39563 5.39372 4.04463 7.05372 4.04363H8.08372C8.48472 4.04363 8.86272 3.88663 9.14972 3.60363L9.86472 2.88663C11.0337 1.70963 12.9447 1.70363 14.1237 2.87563L14.8547 3.60663C15.1377 3.88763 15.5157 4.04363 15.9177 4.04363H16.9457C18.6067 4.04363 19.9577 5.39463 19.9577 7.05563V8.08263C19.9577 8.48363 20.1137 8.86263 20.3967 9.14763L21.1147 9.86663C21.6837 10.4316 21.9997 11.1866 22.0027 11.9916C22.0057 12.7966 21.6947 13.5536 21.1277 14.1246L20.3947 14.8556C20.1137 15.1386 19.9577 15.5156 19.9577 15.9176V16.9466C19.9577 18.6066 18.6067 19.9576 16.9467 19.9576H15.9157C15.5197 19.9576 15.1327 20.1176 14.8517 20.3966L14.1337 21.1146C13.5467 21.7056 12.7727 22.0016 11.9987 22.0016Z" fill="#212121"/>
</g>
<path fill-rule="evenodd" clip-rule="evenodd" d="M9.42993 15.3217C9.23793 15.3217 9.04593 15.2487 8.89993 15.1017C8.60693 14.8087 8.60693 14.3347 8.89993 14.0417L14.0399 8.90066C14.3329 8.60766 14.8079 8.60766 15.1009 8.90066C15.3939 9.19366 15.3939 9.66866 15.1009 9.96166L9.95993 15.1017C9.81393 15.2487 9.62193 15.3217 9.42993 15.3217Z" fill="#212121"/>
<path fill-rule="evenodd" clip-rule="evenodd" d="M14.5035 15.4993C13.9505 15.4993 13.4985 15.0523 13.4985 14.4993C13.4985 13.9463 13.9415 13.4993 14.4945 13.4993H14.5035C15.0565 13.4993 15.5035 13.9463 15.5035 14.4993C15.5035 15.0523 15.0565 15.4993 14.5035 15.4993Z" fill="#212121"/>
<path fill-rule="evenodd" clip-rule="evenodd" d="M9.50354 10.4993C8.95054 10.4993 8.49854 10.0523 8.49854 9.49927C8.49854 8.94627 8.94154 8.49927 9.49454 8.49927H9.50354C10.0565 8.49927 10.5035 8.94627 10.5035 9.49927C10.5035 10.0523 10.0565 10.4993 9.50354 10.4993Z" fill="#212121"/>
</svg>
