<svg width="24" height="24" viewBox="0 0 24 24" fill="none" xmlns="http://www.w3.org/2000/svg">
<path fill-rule="evenodd" clip-rule="evenodd" d="M16.9293 16.5029H16.8223C16.4083 16.5029 16.0723 16.1669 16.0723 15.7529C16.0723 15.3389 16.4083 15.0029 16.8223 15.0029H16.9293C17.3433 15.0029 17.6793 15.3389 17.6793 15.7529C17.6793 16.1669 17.3433 16.5029 16.9293 16.5029Z" fill="#212121"/>
<path fill-rule="evenodd" clip-rule="evenodd" d="M8.59766 16.5597C8.18366 16.5597 7.84766 16.2237 7.84766 15.8097V12.0647C7.84766 11.6507 8.18366 11.3147 8.59766 11.3147C9.01166 11.3147 9.34766 11.6507 9.34766 12.0647V15.8097C9.34766 16.2237 9.01166 16.5597 8.59766 16.5597Z" fill="#212121"/>
<path fill-rule="evenodd" clip-rule="evenodd" d="M10.5085 14.6865H6.6875C6.2735 14.6865 5.9375 14.3505 5.9375 13.9365C5.9375 13.5225 6.2735 13.1865 6.6875 13.1865H10.5085C10.9225 13.1865 11.2585 13.5225 11.2585 13.9365C11.2585 14.3505 10.9225 14.6865 10.5085 14.6865Z" fill="#212121"/>
<path fill-rule="evenodd" clip-rule="evenodd" d="M15.1158 12.9287H15.0088C14.5948 12.9287 14.2588 12.5927 14.2588 12.1787C14.2588 11.7647 14.5948 11.4287 15.0088 11.4287H15.1158C15.5298 11.4287 15.8658 11.7647 15.8658 12.1787C15.8658 12.5927 15.5298 12.9287 15.1158 12.9287Z" fill="#212121"/>
<mask id="mask0_2128_44949" style="mask-type:luminance" maskUnits="userSpaceOnUse" x="7" y="1" width="7" height="6">
<path fill-rule="evenodd" clip-rule="evenodd" d="M7.07178 1H13.1118V6.5879H7.07178V1Z" fill="white"/>
</mask>
<g mask="url(#mask0_2128_44949)">
<path fill-rule="evenodd" clip-rule="evenodd" d="M12.3618 6.588C11.9478 6.588 11.6118 6.252 11.6118 5.838V5.163C11.6088 4.439 10.9948 3.844 10.2438 3.841H9.18978C8.02278 3.841 7.07178 2.903 7.07178 1.75C7.07178 1.336 7.40778 1 7.82178 1C8.23678 1 8.57178 1.336 8.57178 1.75C8.57178 2.076 8.84878 2.341 9.18978 2.341H10.2468C11.8198 2.346 13.1048 3.61 13.1118 5.159V5.838C13.1118 6.252 12.7758 6.588 12.3618 6.588Z" fill="#212121"/>
</g>
<mask id="mask1_2128_44949" style="mask-type:luminance" maskUnits="userSpaceOnUse" x="1" y="5" width="22" height="18">
<path fill-rule="evenodd" clip-rule="evenodd" d="M1 5.37329H22.4998V22.5H1V5.37329Z" fill="white"/>
</mask>
<g mask="url(#mask1_2128_44949)">
<path fill-rule="evenodd" clip-rule="evenodd" d="M11.701 6.87304C10.225 6.87304 8.767 6.88604 7.335 6.91004C4.528 6.91004 2.5 8.88804 2.5 11.612V16.262C2.5 18.985 4.528 20.963 7.323 20.963C10.27 21.012 13.241 21.012 16.165 20.963H16.178C18.972 20.963 21 18.985 21 16.262V11.612C21 8.88804 18.972 6.91004 16.178 6.91004C14.674 6.88604 13.179 6.87304 11.701 6.87304ZM11.754 22.5C10.271 22.5 8.786 22.487 7.31 22.463C3.659 22.463 1 19.854 1 16.262V11.612C1 8.01904 3.659 5.41004 7.323 5.41004C10.192 5.36104 13.18 5.36104 16.19 5.41004C19.841 5.41004 22.5 8.01904 22.5 11.612V16.262C22.5 19.852 19.845 22.46 16.184 22.463C14.716 22.487 13.236 22.5 11.754 22.5Z" fill="#212121"/>
</g>
</svg>
