<svg width="24" height="24" viewBox="0 0 24 24" fill="none" xmlns="http://www.w3.org/2000/svg">
<mask id="mask0_2128_44934" style="mask-type:luminance" maskUnits="userSpaceOnUse" x="3" y="2" width="18" height="20">
<path fill-rule="evenodd" clip-rule="evenodd" d="M3 2.01172H20.0522V21.8652H3V2.01172Z" fill="white"/>
</mask>
<g mask="url(#mask0_2128_44934)">
<path fill-rule="evenodd" clip-rule="evenodd" d="M7.57307 3.51172C5.91607 3.51172 4.54007 4.85372 4.50107 6.50872V17.2277C4.46507 18.9287 5.80507 20.3287 7.49007 20.3657H15.5731C17.2421 20.3057 18.5631 18.9287 18.5521 17.2327V8.33972L13.9181 3.51172H7.58507H7.57307ZM7.58507 21.8657H7.45907C4.94707 21.8117 2.94707 19.7237 3.00107 17.2117V6.49072C3.06007 4.00972 5.10807 2.01172 7.57007 2.01172H7.58807H14.2371C14.4411 2.01172 14.6361 2.09472 14.7781 2.24172L19.8441 7.51872C19.9771 7.65772 20.0521 7.84472 20.0521 8.03772V17.2277C20.0681 19.7367 18.1121 21.7757 15.5991 21.8657H7.58507Z" fill="#212121"/>
</g>
<path fill-rule="evenodd" clip-rule="evenodd" d="M11.1416 16.7002C10.7276 16.7002 10.3916 16.3642 10.3916 15.9502V9.90918C10.3916 9.49518 10.7276 9.15918 11.1416 9.15918C11.5556 9.15918 11.8916 9.49518 11.8916 9.90918V15.9502C11.8916 16.3642 11.5556 16.7002 11.1416 16.7002Z" fill="#212121"/>
<path fill-rule="evenodd" clip-rule="evenodd" d="M8.79663 13.0145C8.60563 13.0145 8.41363 12.9415 8.26763 12.7955C7.97463 12.5035 7.97263 12.0295 8.26563 11.7355L10.6096 9.37949C10.8916 9.09649 11.3916 9.09649 11.6726 9.37949L14.0186 11.7355C14.3106 12.0295 14.3096 12.5035 14.0166 12.7955C13.7226 13.0875 13.2476 13.0875 12.9556 12.7935L11.1416 10.9715L9.32763 12.7935C9.18163 12.9415 8.98863 13.0145 8.79663 13.0145Z" fill="#212121"/>
<path fill-rule="evenodd" clip-rule="evenodd" d="M19.2976 8.98424H16.5436C14.7126 8.97924 13.2256 7.48724 13.2256 5.65924V2.75024C13.2256 2.33624 13.5616 2.00024 13.9756 2.00024C14.3896 2.00024 14.7256 2.33624 14.7256 2.75024V5.65924C14.7256 6.66324 15.5416 7.48124 16.5456 7.48424H19.2976C19.7116 7.48424 20.0476 7.82024 20.0476 8.23424C20.0476 8.64824 19.7116 8.98424 19.2976 8.98424Z" fill="#212121"/>
</svg>
