<svg width="24" height="24" viewBox="0 0 24 24" fill="none" xmlns="http://www.w3.org/2000/svg">
<mask id="mask0_2128_44933" style="mask-type:luminance" maskUnits="userSpaceOnUse" x="3" y="2" width="18" height="20">
<path fill-rule="evenodd" clip-rule="evenodd" d="M3 2.01172H20.0522V21.8652H3V2.01172Z" fill="white"/>
</mask>
<g mask="url(#mask0_2128_44933)">
<path fill-rule="evenodd" clip-rule="evenodd" d="M7.57307 3.51172C5.91607 3.51172 4.54007 4.85372 4.50107 6.50872V17.2277C4.46507 18.9287 5.80507 20.3287 7.49007 20.3657H15.5731C17.2421 20.3057 18.5631 18.9287 18.5521 17.2327V8.33972L13.9181 3.51172H7.58507H7.57307ZM7.58507 21.8657H7.45907C4.94707 21.8117 2.94707 19.7237 3.00107 17.2117V6.49072C3.06007 4.00972 5.10807 2.01172 7.57007 2.01172H7.58807H14.2371C14.4411 2.01172 14.6361 2.09472 14.7781 2.24172L19.8441 7.51872C19.9771 7.65772 20.0521 7.84472 20.0521 8.03772V17.2277C20.0681 19.7367 18.1121 21.7757 15.5991 21.8657H7.58507Z" fill="#212121"/>
</g>
<path fill-rule="evenodd" clip-rule="evenodd" d="M11.1426 16.7002C10.7286 16.7002 10.3926 16.3642 10.3926 15.9502V9.90918C10.3926 9.49518 10.7286 9.15918 11.1426 9.15918C11.5566 9.15918 11.8926 9.49518 11.8926 9.90918V15.9502C11.8926 16.3642 11.5566 16.7002 11.1426 16.7002Z" fill="#212121"/>
<path fill-rule="evenodd" clip-rule="evenodd" d="M11.1413 16.6992C10.9423 16.6992 10.7503 16.6202 10.6103 16.4782L8.26525 14.1242C7.97325 13.8302 7.97425 13.3552 8.26725 13.0632C8.56125 12.7712 9.03625 12.7712 9.32825 13.0652L11.1413 14.8872L12.9543 13.0652C13.2463 12.7712 13.7213 12.7712 14.0153 13.0632C14.3083 13.3552 14.3093 13.8302 14.0173 14.1242L11.6723 16.4782C11.5323 16.6202 11.3403 16.6992 11.1413 16.6992Z" fill="#212121"/>
<path fill-rule="evenodd" clip-rule="evenodd" d="M19.2976 8.98424H16.5436C14.7126 8.97924 13.2256 7.48724 13.2256 5.65924V2.75024C13.2256 2.33624 13.5616 2.00024 13.9756 2.00024C14.3896 2.00024 14.7256 2.33624 14.7256 2.75024V5.65924C14.7256 6.66324 15.5416 7.48124 16.5456 7.48424H19.2976C19.7116 7.48424 20.0476 7.82024 20.0476 8.23424C20.0476 8.64824 19.7116 8.98424 19.2976 8.98424Z" fill="#212121"/>
</svg>
