<svg width="24" height="24" viewBox="0 0 24 24" fill="none" xmlns="http://www.w3.org/2000/svg">
<mask id="mask0_2128_44931" style="mask-type:luminance" maskUnits="userSpaceOnUse" x="3" y="2" width="18" height="20">
<path fill-rule="evenodd" clip-rule="evenodd" d="M3 2.01172H20.0515V21.8667H3V2.01172Z" fill="white"/>
</mask>
<g mask="url(#mask0_2128_44931)">
<path fill-rule="evenodd" clip-rule="evenodd" d="M7.47851 3.51172C5.83551 3.51172 4.49951 4.84872 4.49951 6.49072V17.3397C4.50451 18.1507 4.82651 18.9147 5.40551 19.4877C5.98351 20.0587 6.78051 20.3867 7.56651 20.3667C7.57351 20.3667 7.68351 20.3657 7.68951 20.3657H15.5725C17.2145 20.3477 18.5545 18.9907 18.5515 17.3407V8.34172L13.9165 3.51172H7.47851ZM7.54251 21.8667C6.34251 21.8667 5.20751 21.4017 4.35051 20.5537C3.48651 19.6997 3.00651 18.5597 2.99951 17.3437V6.49072C2.99951 4.02172 5.00851 2.01172 7.47851 2.01172H14.2365C14.4405 2.01172 14.6355 2.09472 14.7775 2.24172L19.8425 7.52072C19.9765 7.65972 20.0515 7.84672 20.0515 8.03972V17.3397C20.0565 19.8087 18.0505 21.8397 15.5805 21.8657L7.57151 21.8667H7.54251Z" fill="#212121"/>
</g>
<path fill-rule="evenodd" clip-rule="evenodd" d="M13.0751 15.3986C12.8831 15.3986 12.6911 15.3256 12.5451 15.1786L9.07913 11.7126C8.78612 11.4196 8.78612 10.9456 9.07913 10.6526C9.37213 10.3596 9.84613 10.3596 10.1391 10.6526L13.6051 14.1186C13.8981 14.4116 13.8981 14.8856 13.6051 15.1786C13.4591 15.3256 13.2671 15.3986 13.0751 15.3986Z" fill="#212121"/>
<path fill-rule="evenodd" clip-rule="evenodd" d="M9.61059 15.3986C9.41859 15.3986 9.22659 15.3256 9.08059 15.1786C8.78759 14.8856 8.78759 14.4116 9.08059 14.1186L12.5466 10.6526C12.8396 10.3596 13.3136 10.3596 13.6066 10.6526C13.8996 10.9456 13.8996 11.4196 13.6066 11.7126L10.1406 15.1786C9.99459 15.3256 9.80259 15.3986 9.61059 15.3986Z" fill="#212121"/>
<path fill-rule="evenodd" clip-rule="evenodd" d="M19.2971 8.98449H16.5411C14.7111 8.97949 13.2241 7.48749 13.2241 5.65949V2.75049C13.2241 2.33649 13.5601 2.00049 13.9741 2.00049C14.3881 2.00049 14.7241 2.33649 14.7241 2.75049V5.65949C14.7241 6.66349 15.5401 7.48149 16.5431 7.48449H19.2971C19.7111 7.48449 20.0471 7.82049 20.0471 8.23449C20.0471 8.64849 19.7111 8.98449 19.2971 8.98449Z" fill="#212121"/>
</svg>
