<svg width="24" height="24" viewBox="0 0 24 24" fill="none" xmlns="http://www.w3.org/2000/svg">
<path fill-rule="evenodd" clip-rule="evenodd" d="M11.9951 17.4266C11.5811 17.4266 11.2451 17.0906 11.2451 16.6766V14.1396C11.2451 13.7256 11.5811 13.3896 11.9951 13.3896C12.4091 13.3896 12.7451 13.7256 12.7451 14.1396V16.6766C12.7451 17.0906 12.4091 17.4266 11.9951 17.4266Z" fill="#212121"/>
<mask id="mask0_2128_44942" style="mask-type:luminance" maskUnits="userSpaceOnUse" x="2" y="4" width="20" height="11">
<path fill-rule="evenodd" clip-rule="evenodd" d="M2 4.58008H21.9898V14.8911H2V4.58008Z" fill="white"/>
</mask>
<g mask="url(#mask0_2128_44942)">
<path fill-rule="evenodd" clip-rule="evenodd" d="M3.5 11.3931C5.876 12.6841 8.872 13.3911 11.99 13.3911C15.114 13.3911 18.113 12.6841 20.49 11.3931V8.39108C20.49 7.11608 19.459 6.08008 18.19 6.08008H5.81C4.536 6.08008 3.5 7.11208 3.5 8.38108V11.3931ZM11.99 14.8911C8.445 14.8911 5.028 14.0331 2.371 12.4771C2.141 12.3431 2 12.0971 2 11.8301V8.38108C2 6.28508 3.709 4.58008 5.81 4.58008H18.19C20.286 4.58008 21.99 6.28908 21.99 8.39108V11.8301C21.99 12.0971 21.848 12.3431 21.619 12.4771C18.962 14.0331 15.542 14.8911 11.99 14.8911Z" fill="#212121"/>
</g>
<path fill-rule="evenodd" clip-rule="evenodd" d="M17.7946 21.7402H6.19457C4.11957 21.7402 2.37257 20.1192 2.21557 18.0492L2.02557 15.5402C1.99457 15.1272 2.30457 14.7662 2.71757 14.7352C3.13257 14.7202 3.49057 15.0132 3.52257 15.4272L3.71157 17.9352C3.80957 19.2272 4.89957 20.2402 6.19457 20.2402H17.7946C19.0896 20.2402 20.1806 19.2272 20.2776 17.9352L20.4676 15.4272C20.4996 15.0132 20.8666 14.7192 21.2726 14.7352C21.6856 14.7662 21.9946 15.1272 21.9636 15.5402L21.7736 18.0492C21.6166 20.1192 19.8696 21.7402 17.7946 21.7402Z" fill="#212121"/>
<mask id="mask1_2128_44942" style="mask-type:luminance" maskUnits="userSpaceOnUse" x="7" y="2" width="10" height="5">
<path fill-rule="evenodd" clip-rule="evenodd" d="M7.74512 2.00024H16.2451V6.07614H7.74512V2.00024Z" fill="white"/>
</mask>
<g mask="url(#mask1_2128_44942)">
<path fill-rule="evenodd" clip-rule="evenodd" d="M15.4951 6.07624C15.0811 6.07624 14.7451 5.74024 14.7451 5.32624V4.96024C14.7451 4.15524 14.0901 3.50024 13.2851 3.50024H10.7051C9.90012 3.50024 9.24512 4.15524 9.24512 4.96024V5.32624C9.24512 5.74024 8.90912 6.07624 8.49512 6.07624C8.08112 6.07624 7.74512 5.74024 7.74512 5.32624V4.96024C7.74512 3.32824 9.07312 2.00024 10.7051 2.00024H13.2851C14.9171 2.00024 16.2451 3.32824 16.2451 4.96024V5.32624C16.2451 5.74024 15.9091 6.07624 15.4951 6.07624Z" fill="#212121"/>
</g>
</svg>
