<svg width="18" height="20" viewBox="0 0 18 20" fill="none" xmlns="http://www.w3.org/2000/svg">
<path d="M12.9774 0.0100088C12.9349 -0.0374912 11.4037 0.0287588 10.0712 1.47501C8.73866 2.92001 8.94366 4.57751 8.97366 4.62001C9.00366 4.66251 10.8737 4.72876 12.0674 3.04751C13.2612 1.36626 13.0199 0.0587588 12.9774 0.0100088ZM17.1199 14.6763C17.0599 14.5563 14.2137 13.1338 14.4787 10.3988C14.7437 7.66251 16.5724 6.91251 16.6012 6.83126C16.6299 6.75001 15.8549 5.84376 15.0337 5.38501C14.4307 5.06157 13.7633 4.87627 13.0799 4.84251C12.9449 4.83876 12.4762 4.72376 11.5124 4.98751C10.8774 5.16126 9.44616 5.72376 9.05241 5.74626C8.65741 5.76876 7.48241 5.09376 6.21866 4.91501C5.40991 4.75876 4.55241 5.07876 3.93866 5.32501C3.32616 5.57001 2.16116 6.26751 1.34616 8.12126C0.531157 9.97376 0.957407 12.9088 1.26241 13.8213C1.56741 14.7325 2.04366 16.2263 2.85366 17.3163C3.57366 18.5463 4.52866 19.4 4.92741 19.69C5.32616 19.98 6.45116 20.1725 7.23116 19.7738C7.85866 19.3888 8.99116 19.1675 9.43866 19.1838C9.88491 19.2 10.7649 19.3763 11.6662 19.8575C12.3799 20.1038 13.0549 20.0013 13.7312 19.7263C14.4074 19.45 15.3862 18.4025 16.5287 16.2788C16.9624 15.2913 17.1599 14.7575 17.1199 14.6763Z" fill="white"/>
<path d="M12.9774 0.0100088C12.9349 -0.0374912 11.4037 0.0287588 10.0712 1.47501C8.73866 2.92001 8.94366 4.57751 8.97366 4.62001C9.00366 4.66251 10.8737 4.72876 12.0674 3.04751C13.2612 1.36626 13.0199 0.0587588 12.9774 0.0100088ZM17.1199 14.6763C17.0599 14.5563 14.2137 13.1338 14.4787 10.3988C14.7437 7.66251 16.5724 6.91251 16.6012 6.83126C16.6299 6.75001 15.8549 5.84376 15.0337 5.38501C14.4307 5.06157 13.7633 4.87627 13.0799 4.84251C12.9449 4.83876 12.4762 4.72376 11.5124 4.98751C10.8774 5.16126 9.44616 5.72376 9.05241 5.74626C8.65741 5.76876 7.48241 5.09376 6.21866 4.91501C5.40991 4.75876 4.55241 5.07876 3.93866 5.32501C3.32616 5.57001 2.16116 6.26751 1.34616 8.12126C0.531157 9.97376 0.957407 12.9088 1.26241 13.8213C1.56741 14.7325 2.04366 16.2263 2.85366 17.3163C3.57366 18.5463 4.52866 19.4 4.92741 19.69C5.32616 19.98 6.45116 20.1725 7.23116 19.7738C7.85866 19.3888 8.99116 19.1675 9.43866 19.1838C9.88491 19.2 10.7649 19.3763 11.6662 19.8575C12.3799 20.1038 13.0549 20.0013 13.7312 19.7263C14.4074 19.45 15.3862 18.4025 16.5287 16.2788C16.9624 15.2913 17.1599 14.7575 17.1199 14.6763Z" fill="white"/>
</svg>
