<svg width="21" height="15" viewBox="0 0 21 15" fill="none" xmlns="http://www.w3.org/2000/svg">
<path d="M19.7959 2.04597L7.7959 14.046C7.69138 14.1509 7.56719 14.2341 7.43044 14.2909C7.2937 14.3476 7.14709 14.3769 6.99902 14.3769C6.85096 14.3769 6.70435 14.3476 6.5676 14.2909C6.43085 14.2341 6.30666 14.1509 6.20215 14.046L0.952147 8.79598C0.8475 8.69133 0.764489 8.56709 0.707854 8.43037C0.65122 8.29364 0.62207 8.14709 0.62207 7.9991C0.62207 7.85111 0.65122 7.70456 0.707854 7.56783C0.764489 7.43111 0.8475 7.30687 0.952147 7.20223C1.05679 7.09758 1.18103 7.01457 1.31776 6.95793C1.45448 6.9013 1.60103 6.87215 1.74902 6.87215C1.89702 6.87215 2.04356 6.9013 2.18029 6.95793C2.31702 7.01457 2.44125 7.09758 2.5459 7.20223L6.99996 11.6563L18.204 0.4541C18.4154 0.242755 18.702 0.124023 19.0009 0.124023C19.2998 0.124023 19.5864 0.242755 19.7978 0.4541C20.0091 0.665444 20.1278 0.952089 20.1278 1.25098C20.1278 1.54986 20.0091 1.83651 19.7978 2.04785L19.7959 2.04597Z" fill="#7E6DFC"/>
</svg>
