<svg width="20" height="20" viewBox="0 0 20 20" fill="none" xmlns="http://www.w3.org/2000/svg">
<g clip-path="url(#clip0_2760_25200)">
<path d="M10 0C4.477 0 0 4.477 0 10C0 15.523 4.477 20 10 20C15.523 20 20 15.523 20 10C20 4.477 15.523 0 10 0Z" fill="url(#paint0_linear_2760_25200)"/>
<path d="M11.4407 14.0478H14.1545L14.5808 11.291H11.4407V9.78411C11.4407 8.63902 11.815 7.62344 12.8862 7.62344H14.6075V5.21792C14.305 5.17702 13.6653 5.08789 12.4568 5.08789C9.93279 5.08789 8.45319 6.42068 8.45319 9.45746V11.2915H5.8584V14.0483H8.45267V21.6256C8.96649 21.7021 9.48713 21.7546 10.0214 21.7546C10.5043 21.7546 10.9756 21.7105 11.4407 21.6476V14.0478Z" fill="white"/>
</g>
<defs>
<linearGradient id="paint0_linear_2760_25200" x1="2.9965" y1="2.9965" x2="18.3075" y2="18.3075" gradientUnits="userSpaceOnUse">
<stop stop-color="#2AA4F4"/>
<stop offset="1" stop-color="#007AD9"/>
</linearGradient>
<clipPath id="clip0_2760_25200">
<rect width="20" height="20" fill="white"/>
</clipPath>
</defs>
</svg>
