<svg width="21" height="21" viewBox="0 0 22 23" fill="none" xmlns="http://www.w3.org/2000/svg">
  <path d="M22.0001 11.4735C22.0001 10.5506 21.9252 9.87711 21.7632 9.17871H11.2246V13.3442H17.4105C17.2858 14.3794 16.6124 15.9383 15.1157 16.9859L15.0948 17.1254L18.4269 19.7067L18.6577 19.7297C20.7778 17.7717 22.0001 14.8907 22.0001 11.4735Z" fill="#4285F4"/>
  <path d="M11.2245 22.4489C14.2551 22.4489 16.7993 21.4511 18.6576 19.73L15.1156 16.9862C14.1678 17.6472 12.8957 18.1087 11.2245 18.1087C8.25627 18.1087 5.73701 16.1507 4.83897 13.4443L4.70734 13.4555L1.24258 16.1369L1.19727 16.2629C3.04305 19.9295 6.83444 22.4489 11.2245 22.4489Z" fill="#34A853"/>
  <path d="M4.83895 13.444C4.602 12.7456 4.46486 11.9973 4.46486 11.2241C4.46486 10.4508 4.602 9.70249 4.82649 9.00409L4.82021 8.85535L1.31203 6.13086L1.19725 6.18546C0.436513 7.70702 0 9.41567 0 11.2241C0 13.0324 0.436513 14.741 1.19725 16.2626L4.83895 13.444Z" fill="#FBBC05"/>
  <path d="M11.2245 4.34011C13.3322 4.34011 14.7539 5.25053 15.5646 6.01136L18.7324 2.91837C16.7869 1.10998 14.2551 0 11.2245 0C6.83444 0 3.04305 2.51925 1.19727 6.18589L4.8265 9.00452C5.73701 6.29818 8.25627 4.34011 11.2245 4.34011Z" fill="#EB4335"/>
</svg>
