<svg width="300" height="245" viewBox="0 0 300 245" fill="none" xmlns="http://www.w3.org/2000/svg">
<g clip-path="url(#clip0_10161_5303)">
<path opacity="0.1" d="M30.9188 132.454C41.9768 151.357 39.8936 176.734 35.0249 196.668C33.3939 203.339 31.5188 210.382 32.9146 217.921C34.6118 227.143 40.8071 234.502 47.0837 238.759C58.5185 246.531 71.5813 246.618 81.0897 238.988C89.3078 232.392 94.7192 220.689 103.097 214.464C117.14 204.021 136.367 210.985 153.084 221.406C164.911 228.78 177.922 238.078 188.851 233.233C196.541 229.824 201.337 219.818 203.58 208.862C204.663 203.571 205.317 197.783 207.801 193.789C209.275 191.413 211.304 189.848 213.402 188.579C232.576 176.97 258.508 187.636 277.013 174.41C289.503 165.484 296.608 146.624 298.951 126.335C301.293 106.046 299.385 84.2371 296.988 62.7512C295.285 47.4817 292.979 31.1209 285.309 18.5586C277.197 5.26671 264.402 -0.877271 253.278 0.0934661C242.154 1.0642 232.482 8.21208 224.162 16.997C213.752 27.9795 204.364 42.0944 190.898 45.4046C181.727 47.6596 171.709 44.5786 161.956 42.7426C145.677 39.6706 129.617 40.0806 113.673 40.7288C98.4092 41.3498 83.0522 42.212 68.8258 47.4908C58.7597 51.226 51.039 59.3024 41.6391 64.4545C35.5163 67.8129 28.6096 68.0993 22.9027 72.6335C15.8724 78.2197 9.78871 88.6868 12.5984 102.16C15.2725 114.963 25.0401 122.421 30.9188 132.454Z" fill="#7E6DFC"/>
<path d="M2.14677 92.6507C2.14677 92.6507 -12.7941 115.991 36.1919 116.398C36.1919 116.398 36.9124 96.0844 20.8983 87.7156C17.7844 86.081 14.1791 85.6453 10.7654 86.4909C7.3517 87.3366 4.36672 89.4048 2.37589 92.304L2.14677 92.6507Z" fill="#7E6DFC"/>
<path d="M2.25781 92.2588C2.25781 92.2588 27.3493 97.2029 36.1914 116.398" stroke="#535461" stroke-miterlimit="10"/>
<path d="M38.3802 113.257C38.3802 113.257 22.2696 92.4369 23.7408 71.9128C24.3437 63.2997 22.3209 54.6957 17.6481 47.4303C15.4246 43.9902 12.8907 40.761 10.0781 37.7832" stroke="#535461" stroke-width="2" stroke-miterlimit="10"/>
<path d="M39.1579 87.3842C37.5088 90.004 27.9854 94.6195 27.9854 94.6195C27.9854 94.6195 28.0245 84.0409 29.6736 81.4211C30.0577 80.782 30.5656 80.2261 31.1673 79.7857C31.769 79.3454 32.4526 79.0296 33.1779 78.8567C33.9033 78.6839 34.6558 78.6575 35.3914 78.7792C36.1271 78.9009 36.8311 79.1681 37.4621 79.5653C38.0932 79.9625 38.6386 80.4816 39.0665 81.0922C39.4945 81.7029 39.7962 82.3927 39.9541 83.1215C40.1121 83.8502 40.123 84.6031 39.9862 85.3361C39.8495 86.0691 39.5679 86.7675 39.1579 87.3902V87.3842Z" fill="#7E6DFC"/>
<path d="M18.4383 104.264C21.4259 105.075 31.5523 102.012 31.5523 102.012C31.5523 102.012 24.3562 94.2554 21.3686 93.4474C20.6534 93.239 19.9039 93.1753 19.1638 93.2599C18.4236 93.3446 17.7078 93.576 17.0582 93.9405C16.4085 94.305 15.8381 94.7954 15.3801 95.383C14.9222 95.9706 14.5861 96.6435 14.3913 97.3626C14.1965 98.0816 14.147 98.8322 14.2457 99.5706C14.3444 100.309 14.5893 101.02 14.9662 101.663C15.343 102.305 15.8441 102.867 16.4403 103.313C17.0365 103.76 17.7157 104.083 18.4383 104.264Z" fill="#7E6DFC"/>
<path opacity="0.25" d="M39.1579 87.3842C37.5088 90.004 27.9854 94.6195 27.9854 94.6195C27.9854 94.6195 28.0245 84.0409 29.6736 81.4211C30.0577 80.782 30.5656 80.2261 31.1673 79.7857C31.769 79.3454 32.4526 79.0296 33.1779 78.8567C33.9033 78.6839 34.6558 78.6575 35.3914 78.7792C36.1271 78.9009 36.8311 79.1681 37.4621 79.5653C38.0932 79.9625 38.6386 80.4816 39.0665 81.0922C39.4945 81.7029 39.7962 82.3927 39.9541 83.1215C40.1121 83.8502 40.123 84.6031 39.9862 85.3361C39.8495 86.0691 39.5679 86.7675 39.1579 87.3902V87.3842Z" fill="black"/>
<path opacity="0.25" d="M18.4383 104.264C21.4259 105.075 31.5523 102.012 31.5523 102.012C31.5523 102.012 24.3562 94.2554 21.3686 93.4474C20.6534 93.239 19.9039 93.1753 19.1638 93.2599C18.4236 93.3446 17.7078 93.576 17.0582 93.9405C16.4085 94.305 15.8381 94.7954 15.3801 95.383C14.9222 95.9706 14.5861 96.6435 14.3913 97.3626C14.1965 98.0816 14.147 98.8322 14.2457 99.5706C14.3444 100.309 14.5893 101.02 14.9662 101.663C15.343 102.305 15.8441 102.867 16.4403 103.313C17.0365 103.76 17.7157 104.083 18.4383 104.264Z" fill="black"/>
<path d="M11.0848 79.2506C14.1658 79.5521 23.629 74.8159 23.629 74.8159C23.629 74.8159 15.2421 68.3886 12.146 68.0961C10.6886 67.9962 9.24987 68.4692 8.13614 69.4145C7.02242 70.3597 6.32175 71.7024 6.18341 73.1566C6.04506 74.6108 6.47997 76.0615 7.39548 77.1998C8.31099 78.3381 9.63476 79.0739 11.0848 79.2506Z" fill="#7E6DFC"/>
<path opacity="0.25" d="M11.0848 79.2506C14.1658 79.5521 23.629 74.8159 23.629 74.8159C23.629 74.8159 15.2421 68.3886 12.146 68.0961C10.6886 67.9962 9.24987 68.4692 8.13614 69.4145C7.02242 70.3597 6.32175 71.7024 6.18341 73.1566C6.04506 74.6108 6.47997 76.0615 7.39548 77.1998C8.31099 78.3381 9.63476 79.0739 11.0848 79.2506Z" fill="black"/>
<path d="M36.0437 64.8765C33.9756 67.1798 23.813 70.1131 23.813 70.1131C23.813 70.1131 25.6399 59.6912 27.705 57.388C28.1935 56.829 28.7882 56.3727 29.4545 56.0455C30.1208 55.7183 30.8455 55.5267 31.5865 55.4819C32.3275 55.4371 33.07 55.5399 33.7709 55.7844C34.4718 56.029 35.1171 56.4103 35.6694 56.9063C36.2217 57.4023 36.67 58.0031 36.9882 58.6738C37.3064 59.3444 37.4882 60.0716 37.523 60.8132C37.5578 61.5547 37.445 62.2957 37.191 62.9933C36.9371 63.6908 36.5471 64.3309 36.0437 64.8765Z" fill="#7E6DFC"/>
<path opacity="0.25" d="M36.0437 64.8765C33.9756 67.1798 23.813 70.1131 23.813 70.1131C23.813 70.1131 25.6399 59.6912 27.705 57.388C28.1935 56.829 28.7882 56.3727 29.4545 56.0455C30.1208 55.7183 30.8455 55.5267 31.5865 55.4819C32.3275 55.4371 33.07 55.5399 33.7709 55.7844C34.4718 56.029 35.1171 56.4103 35.6694 56.9063C36.2217 57.4023 36.67 58.0031 36.9882 58.6738C37.3064 59.3444 37.4882 60.0716 37.523 60.8132C37.5578 61.5547 37.445 62.2957 37.191 62.9933C36.9371 63.6908 36.5471 64.3309 36.0437 64.8765Z" fill="black"/>
<path d="M25.7943 37.4423C25.1732 40.4751 17.8776 48.1384 17.8776 48.1384C17.8776 48.1384 14.1936 38.22 14.8147 35.1752C14.9635 34.4543 15.2529 33.7697 15.6663 33.1606C16.0798 32.5515 16.6091 32.0298 17.2241 31.6253C17.8392 31.2208 18.5278 30.9414 19.2509 30.803C19.9739 30.6647 20.7171 30.6701 21.438 30.8189C22.1589 30.9678 22.8435 31.2572 23.4526 31.6706C24.0617 32.084 24.5833 32.6133 24.9879 33.2284C25.3924 33.8434 25.6718 34.5321 25.8102 35.2551C25.9485 35.9781 25.9431 36.7213 25.7943 37.4423Z" fill="#7E6DFC"/>
<path d="M7.12697 52.9835C9.97889 54.1894 20.4249 52.5072 20.4249 52.5072C20.4249 52.5072 14.3382 43.8489 11.4772 42.6461C10.7984 42.3604 10.0701 42.2113 9.33364 42.2071C8.59724 42.203 7.86722 42.3439 7.18528 42.6219C6.50334 42.8999 5.88284 43.3095 5.35919 43.8272C4.83554 44.345 4.419 44.9609 4.13336 45.6397C3.55648 47.0105 3.54779 48.5543 4.1092 49.9316C4.67062 51.3088 5.75614 52.4066 7.12697 52.9835Z" fill="#7E6DFC"/>
<path opacity="0.25" d="M25.7943 37.4423C25.1732 40.4751 17.8776 48.1384 17.8776 48.1384C17.8776 48.1384 14.1936 38.22 14.8147 35.1752C14.9635 34.4543 15.2529 33.7697 15.6663 33.1606C16.0798 32.5515 16.6091 32.0298 17.2241 31.6253C17.8392 31.2208 18.5278 30.9414 19.2509 30.803C19.9739 30.6647 20.7171 30.6701 21.438 30.8189C22.1589 30.9678 22.8435 31.2572 23.4526 31.6706C24.0617 32.084 24.5833 32.6133 24.9879 33.2284C25.3924 33.8434 25.6718 34.5321 25.8102 35.2551C25.9485 35.9781 25.9431 36.7213 25.7943 37.4423Z" fill="black"/>
<path opacity="0.25" d="M7.12697 52.9835C9.97889 54.1894 20.4249 52.5072 20.4249 52.5072C20.4249 52.5072 14.3382 43.8489 11.4772 42.6461C10.7984 42.3604 10.0701 42.2113 9.33364 42.2071C8.59724 42.203 7.86722 42.3439 7.18528 42.6219C6.50334 42.8999 5.88284 43.3095 5.35919 43.8272C4.83554 44.345 4.419 44.9609 4.13336 45.6397C3.55648 47.0105 3.54779 48.5543 4.1092 49.9316C4.67062 51.3088 5.75614 52.4066 7.12697 52.9835Z" fill="black"/>
<path d="M37.0811 42.2213V145.273L174.19 118.638L171.57 39.6016L37.0811 42.2213Z" fill="#5F546F"/>
<path opacity="0.1" d="M37.0811 42.2213V145.273L174.19 118.638L171.57 39.6016L37.0811 42.2213Z" fill="black"/>
<path d="M294.818 163.723V197.784L149.849 240.137L148.369 239.372L33.6953 179.879V39.0561L175.61 34.4707L176.484 112.633L170.807 114.382L168.625 41.2749L43.7403 45.607L42.8661 151.496L151.595 199.092L151.676 199.074L294.818 163.723Z" fill="#5F546F"/>
<path d="M79.3684 215.185L57.7348 233.206L32.2695 215.995L57.3037 202.616L78.3976 212.595L79.3684 215.185Z" fill="#DADAE5"/>
<path opacity="0.1" d="M294.818 163.723V197.783L149.849 240.137L148.369 239.371L151.676 199.073L294.818 163.723Z" fill="black"/>
<path d="M120.046 114.27C120.046 114.27 49.8573 121.273 43.032 131.418C36.2067 141.562 42.9777 154.007 42.9777 154.007L151.486 201.166L298.64 163.181C298.64 163.181 294.721 136.546 282.484 133.489C270.248 130.432 172.882 109.468 172.882 109.468C172.882 109.468 133.582 107.065 120.046 114.27Z" fill="#EBECF0"/>
<path d="M42.9775 131.517L153.669 169.725C153.669 169.725 271.737 133.919 288.463 137.302C288.463 137.302 205.859 107.743 172.881 109.027C146.59 110.052 119.063 114.369 119.063 114.369C119.063 114.369 46.0314 121.695 42.9775 131.517Z" fill="#F8F9FA"/>
<path d="M89.872 69.3437L55.5225 98.2892C51.7029 101.508 51.2157 107.214 54.4344 111.033L71.6987 131.521C74.9174 135.34 80.6231 135.828 84.4427 132.609L118.792 103.663C122.612 100.445 123.099 94.7389 119.88 90.9193L102.616 70.4318C99.3973 66.6122 93.6916 66.125 89.872 69.3437Z" fill="#7E6DFC"/>
<path opacity="0.1" d="M89.8701 69.6435L55.5205 98.589C51.7009 101.808 51.2138 107.513 54.4324 111.333L71.6968 131.821C74.9155 135.64 80.6212 136.127 84.4408 132.909L118.79 103.963C122.61 100.744 123.097 95.0387 119.878 91.2191L102.614 70.7316C99.3954 66.912 93.6897 66.4248 89.8701 69.6435Z" fill="black"/>
<path d="M89.2411 71.8001L58.0498 98.0842C54.2302 101.303 53.7431 107.009 56.9617 110.828L72.3281 129.063C75.5468 132.883 81.2525 133.37 85.0721 130.151L116.263 103.867C120.083 100.649 120.57 94.943 117.351 91.1234L101.985 72.8881C98.7663 69.0685 93.0607 68.5814 89.2411 71.8001Z" fill="#7E6DFC"/>
<path opacity="0.05" d="M65.4946 114.827C66.3568 113.657 67.3035 112.415 68.645 111.897C69.4318 111.595 70.3091 111.541 71.0869 111.212C72.7209 110.519 73.6012 108.758 74.1981 107.085C74.795 105.412 75.3015 103.603 76.6099 102.403" fill="black"/>
<path opacity="0.05" d="M73.0225 117.667C73.8847 116.497 74.8313 115.255 76.1728 114.736C76.9597 114.435 77.837 114.381 78.6147 114.052C80.2487 113.359 81.129 111.598 81.7259 109.925C82.3228 108.252 82.8293 106.443 84.1377 105.243" fill="black"/>
<path opacity="0.1" d="M92.3555 112.72C93.2177 111.551 94.1643 110.309 95.5058 109.79C96.2927 109.489 97.17 109.434 97.9478 109.106C99.5817 108.412 100.462 106.652 101.059 104.979C101.656 103.306 102.162 101.497 103.471 100.297" fill="black"/>
<path opacity="0.05" d="M89.4707 93.2693C90.3329 92.0996 91.2795 90.8576 92.6211 90.339C93.4079 90.0376 94.2852 89.9833 95.063 89.6547C96.697 88.9613 97.5773 87.2007 98.1742 85.5276C98.7711 83.8544 99.2776 82.0456 100.586 80.8457" fill="black"/>
<path d="M144.742 62.7109L110.393 91.6564C106.573 94.8751 106.086 100.581 109.305 104.4L126.569 124.888C129.788 128.708 135.493 129.195 139.313 125.976L173.662 97.0305C177.482 93.8118 177.969 88.1061 174.75 84.2865L157.486 63.799C154.267 59.9794 148.562 59.4922 144.742 62.7109Z" fill="#7E6DFC"/>
<path opacity="0.1" d="M144.742 62.7109L110.393 91.6564C106.573 94.8751 106.086 100.581 109.305 104.4L126.569 124.888C129.788 128.708 135.493 129.195 139.313 125.976L173.662 97.0305C177.482 93.8118 177.969 88.1061 174.75 84.2865L157.486 63.799C154.267 59.9794 148.562 59.4922 144.742 62.7109Z" fill="black"/>
<path d="M144.111 65.1663L112.92 91.4504C109.1 94.6691 108.613 100.375 111.832 104.194L127.198 122.43C130.417 126.249 136.123 126.736 139.942 123.518L171.133 97.2336C174.953 94.0149 175.44 88.3092 172.222 84.4896L156.855 66.2543C153.636 62.4347 147.931 61.9476 144.111 65.1663Z" fill="#7E6DFC"/>
<path opacity="0.05" d="M120.362 108.195C121.225 107.025 122.171 105.783 123.513 105.265C124.3 104.963 125.177 104.909 125.955 104.58C127.589 103.887 128.469 102.126 129.066 100.453C129.663 98.7802 130.169 96.9713 131.478 95.7715" fill="black"/>
<path opacity="0.05" d="M127.89 111.035C128.752 109.865 129.699 108.623 131.041 108.105C131.827 107.803 132.705 107.749 133.482 107.42C135.116 106.727 135.997 104.966 136.594 103.293C137.191 101.62 137.697 99.8112 139.005 98.6113" fill="black"/>
<path opacity="0.1" d="M147.224 106.088C148.086 104.918 149.032 103.676 150.374 103.157C151.161 102.856 152.038 102.802 152.816 102.473C154.45 101.78 155.33 100.019 155.927 98.3459C156.524 96.6727 157.03 94.8639 158.339 93.6641" fill="black"/>
<path opacity="0.05" d="M144.338 86.6365C145.201 85.4668 146.147 84.2247 147.489 83.7062C148.276 83.4047 149.153 83.3505 149.931 83.0219C151.565 82.3285 152.445 80.5679 153.042 78.8947C153.639 77.2216 154.145 75.4127 155.454 74.2129" fill="black"/>
<path d="M284.417 191.19C284.299 190.705 284.048 190.262 283.692 189.911C283.336 189.56 282.89 189.315 282.403 189.204C273.923 187.093 266.29 170.98 266.29 170.98C266.29 170.98 265.988 167.911 263.836 163.307C262.832 161.158 262.099 157.54 261.599 154.29C264.339 153.054 266.422 151.677 265.063 150.724C264.305 150.209 263.452 149.851 262.554 149.672L261.686 144.894C261.988 141.517 259.537 130.161 259.537 130.161L257.411 112.549C257.411 112.549 257.655 112.136 257.276 111.454V111.43L257.218 111.334L257.191 111.295L257.128 111.201L257.092 111.153L256.977 111.011L256.902 110.924L256.838 110.857L256.748 110.764L256.679 110.698L256.57 110.598L256.498 110.535L256.356 110.417L256.293 110.366C256.145 110.248 255.991 110.128 255.792 110.007L255.741 109.974L255.5 109.82L255.421 109.772L255.171 109.624L255.087 109.576L254.785 109.413L254.722 109.38C254.463 109.246 254.18 109.109 253.875 108.97L253.8 108.937L253.408 108.765L253.272 108.708L252.898 108.554L252.741 108.491L252.328 108.334L252.181 108.277L251.578 108.063C251.376 107.993 251.18 107.93 250.975 107.87L250.761 107.81L250.402 107.71L250.17 107.653L249.847 107.58L249.627 107.535L249.296 107.478L249.118 107.448C248.955 107.424 248.795 107.404 248.638 107.387H248.542L248.168 107.36H248.02H247.571H247.27H247.152L246.799 107.397H246.772C246.64 107.415 246.511 107.436 246.386 107.46H246.353L246.052 107.532L245.961 107.556L245.723 107.629L245.621 107.662L245.416 107.737L245.31 107.779H245.277L245.205 107.813C242.615 108.717 238.117 109.428 233.3 109.965C232.356 106.703 231.554 103.465 231.334 101.28C230.731 95.1417 227.65 88.0813 227.65 88.0813C227.618 88.1623 227.577 88.2393 227.526 88.3104C227.526 88.229 227.499 88.1476 227.484 88.0692C227.05 85.8564 225.54 85.0545 220.59 83.1703C215.766 81.3313 213.52 84.138 212.697 85.6635C212.649 85.7509 212.61 85.8323 212.57 85.9107L211.998 85.6273L204.937 95.1417L204.747 95.4914L199.924 104.933L199.761 105.253L199.695 105.298L192.884 121.035C189.053 119.112 182.815 119.112 182.815 119.112L179.746 116.35L172.068 107.14C171.328 104.619 170.401 102.156 169.294 99.7723C168.302 97.6228 167.757 94.3157 167.461 91.723C168.218 90.7048 168.835 89.5894 169.294 88.4068L169.125 88.1868C169.183 88.0571 169.24 87.9275 169.294 87.7949C169.294 87.7949 163.156 79.8149 163.156 76.7459C163.156 73.677 145.972 71.22 145.972 71.22C145.972 71.22 145.957 71.2803 145.927 71.3797C145.232 70.9762 144.619 70.4466 144.118 69.8181C144.034 69.7126 143.949 69.5981 143.868 69.4805C144.987 68.2878 145.856 66.8836 146.425 65.3503C146.957 65.6384 147.553 65.7896 148.158 65.7905C148.921 65.7905 149.843 65.2629 149.696 64.5153C149.715 64.4157 149.715 64.3133 149.696 64.2138C149.611 63.7827 149.204 63.5083 148.888 63.2039C148.531 62.8547 148.306 62.3939 148.248 61.8985C148.27 61.6206 148.388 61.3591 148.583 61.1599C148.858 60.9474 149.146 60.7521 149.445 60.575C150.151 60.0233 150.259 59.0345 150.238 58.121C150.238 57.9281 150.238 57.7382 150.238 57.5513C150.147 55.5361 149.918 53.5295 149.551 51.546C149.466 51.0344 149.341 50.5304 149.177 50.0386C148.908 49.3567 148.572 48.7033 148.173 48.0881L145.183 43.1229C144.838 42.4631 144.374 41.8732 143.814 41.3834C141.725 39.7765 139.292 41.7331 137.296 40.6026C136.253 40.0177 135.505 39.2761 134.281 38.9957C132.861 38.6731 131.369 38.8631 129.967 39.1706C129.578 39.2211 129.211 39.3834 128.912 39.6378C128.517 40.0448 128.511 40.6749 128.36 41.2206C128.059 42.2757 127.185 43.0626 126.25 43.6323C125.316 44.2021 124.288 44.6182 123.416 45.2814C121.825 46.4873 120.917 48.3624 119.853 50.0537C118.432 52.3076 116.654 54.3155 114.589 55.9987C114.622 56.0705 114.666 56.1366 114.719 56.1946L114.589 56.3062C114.891 56.9966 115.976 56.7946 116.579 57.2558C116.706 57.356 116.81 57.4824 116.884 57.6266C116.958 57.7707 117 57.9291 117.007 58.0909C116.953 58.5727 116.808 59.0399 116.582 59.4686C116.299 60.0324 116.015 60.7167 116.069 61.3076C116.043 61.4901 116.056 61.6762 116.108 61.8531C116.16 62.03 116.25 62.1936 116.371 62.3326C116.566 62.4878 116.748 62.6582 116.917 62.8421C116.979 62.9327 117.021 63.0354 117.04 63.1436C116.953 63.7043 116.464 64.3193 116.413 64.9343C116.404 65.0205 116.404 65.1074 116.413 65.1936C116.413 65.2086 116.413 65.2237 116.413 65.2418C116.344 66.0648 117.088 66.7281 117.836 67.0808C118.529 67.4094 119.307 67.6234 119.868 68.1329C119.464 68.7208 119.09 69.4111 119.157 70.0593C119.127 70.3272 119.174 70.5979 119.292 70.8401C119.769 71.7958 121.125 71.8018 122.162 71.5486C122.431 71.4519 122.722 71.4362 123 71.5034C123.242 71.6279 123.455 71.8026 123.624 72.0159C124.752 73.1223 126.922 72.7092 127.622 71.3134L127.568 71.5395C127.474 71.9194 127.369 72.3083 127.266 72.7062C127.266 72.6218 127.266 72.5404 127.266 72.453C127.266 72.453 121.454 73.8126 116.877 74.8045C115.566 75.0898 114.332 75.6529 113.257 76.4559C112.182 77.2588 111.292 78.283 110.646 79.4592L106.395 87.1859C106.395 87.1859 106.44 87.3155 106.54 87.5356L106.395 87.8009C106.656 88.4583 106.995 89.0819 107.405 89.6579C105.467 94.2283 101.376 103.158 97.8003 106.522C97.2197 107.071 96.6087 107.586 95.9704 108.066C95.2543 108.048 94.5437 108.194 93.8932 108.494C93.1577 108.844 92.5137 109.36 92.012 110.001C90.9629 110.173 90.4354 109.914 90.4354 109.914C90.4354 109.914 86.9172 112.681 84.6501 115.672C84.1828 115.841 83.7186 116.013 83.2634 116.202C81.1742 117.083 79.0608 118.786 79.082 121.053C79.082 122.645 80.1733 124.068 80.7039 125.575L79.3864 127.113C79.3864 127.113 76.625 129.262 74.168 129.874C71.711 130.486 66.794 134.454 66.794 134.454L57.587 140.899L56.6163 141.523C54.6115 138.674 52.6761 134.454 52.6761 134.454C52.6761 134.454 49.2996 128.316 45.6156 135.056L45.5041 135.258C44.9249 136.344 44.5229 137.516 44.3133 138.728C39.9932 136.618 37.898 144.866 37.6327 146.72C37.5724 147.139 37.0086 149.165 37.7533 150.857C38.7923 153.267 40.3369 155.426 42.2827 157.188C44.2284 158.949 46.5299 160.272 49.0313 161.067C49.5269 161.221 50.03 161.348 50.5387 161.45C55.1421 162.37 58.2111 155.62 58.2111 155.62L58.3076 154.649C59.0085 154.722 59.7139 154.742 60.4179 154.709C60.8671 154.688 61.3223 154.685 61.8257 154.709C64.2922 154.757 66.7425 154.303 69.0279 153.374L72.947 151.803L73.6012 151.541C73.5831 151.671 73.565 151.8 73.5439 151.933L88.2798 147.043C88.2798 147.043 93.3144 146.413 98.9097 145.59C99.0846 146.084 99.2474 146.585 99.4524 147.07C100.734 150.085 103.673 152.126 106.781 153.115C109.889 154.103 113.215 154.185 116.479 154.257C116.817 154.257 117.155 154.257 117.495 154.257C118.566 154.272 119.657 154.239 120.628 153.805C121.722 153.317 122.62 152.171 122.415 150.989C122.256 150.067 121.511 149.382 120.818 148.749C119.488 147.519 118.219 146.151 117.55 144.468C117.393 144.073 117.277 143.663 117.203 143.244C118.043 144.042 119.074 144.61 120.197 144.894C126.335 146.428 137.079 147.962 140.145 147.043C143.211 146.124 150.886 144.282 162.55 147.043C174.214 149.804 177.588 148.885 177.588 148.885L177.536 148.81C180.593 149.524 184.998 150.166 189.164 149.376C191.601 148.918 194.064 148.604 196.538 148.436C198.103 148.327 199.93 148.134 201.787 147.833C205.111 147.264 208.135 145.559 210.342 143.009C216.462 143.838 226.076 140.296 226.076 140.296L227.484 139.563L228.533 142.138C228.533 142.138 226.999 150.118 236.513 153.494C241.026 155.094 245.693 156.221 250.438 156.859C251.985 167.326 254.008 171.601 254.008 171.601L250.631 176.512C249.591 180.666 252.741 182.381 255.708 183.084C258.195 183.693 260.532 184.8 262.578 186.34C266.859 189.52 275.183 192.776 275.183 192.776C283.633 194.495 284.758 192.746 284.417 191.19ZM175.137 122.793L177.036 124.692L176.364 124.635L175.182 126.784H169.294C168.691 126.784 165.918 124.635 165.918 124.635L165.134 124.713L166.533 123.715C166.533 123.715 168.556 122.621 168.278 118.554L175.137 122.793ZM154.121 114.933C153.609 113.29 153.033 111.506 152.445 109.781C152.517 109.097 152.602 108.415 152.701 107.746L154.881 114.505L154.121 114.933ZM111.11 105.506C110.431 106.709 109.639 107.844 108.747 108.898C108.472 108.813 108.195 108.744 107.915 108.678C107.915 108.678 109.353 107.418 111.11 105.506ZM237.125 135.988C237.08 135.563 237.023 135.102 236.956 134.616L240.806 132.612C243.266 134.457 244.186 139.687 244.49 144.45C243.155 143.844 237.671 141.092 237.125 135.988Z" fill="url(#paint0_linear_10161_5303)"/>
<path d="M44.9217 179.659L55.8199 200.593L32.2961 211.546L17.0869 183.313L44.9217 179.659Z" fill="#DADAE5"/>
<path opacity="0.03" d="M46.6497 177.717L44.9223 179.875L17.0875 183.529L16.168 181.817L46.6497 177.717Z" fill="black"/>
<path opacity="0.03" d="M57.4937 199.028L46.6498 177.717L44.9224 179.875L55.5462 200.282L57.4937 199.028Z" fill="black"/>
<path d="M46.6497 177.5L44.9223 179.659L17.0875 183.312L16.168 181.6L46.6497 177.5Z" fill="#EFF0F4"/>
<path d="M57.4937 198.811L46.6498 177.5L44.9224 179.659L55.5462 200.068L57.4937 198.811Z" fill="#EFF0F4"/>
<path opacity="0.03" d="M46.6497 177.5L44.0179 180.864L16.183 184.518L16.168 181.6L46.6497 177.5Z" fill="black"/>
<path opacity="0.03" d="M57.4933 198.811L46.6494 177.5L44.0176 180.864L54.6414 201.274L57.4933 198.811Z" fill="black"/>
<path opacity="0.03" d="M57.4934 199.134V203.514L32.2964 216.948V211.868L57.4934 199.134Z" fill="black"/>
<path opacity="0.03" d="M79.3955 210.086L57.4936 199.134L57.3037 203.541L78.9132 214.895L79.3955 210.086Z" fill="black"/>
<path d="M57.4934 198.812V202.589L32.2964 216.023V211.546L57.4934 198.812Z" fill="#EFF0F4"/>
<path d="M79.3955 209.764L57.4936 198.812L57.3037 202.616L78.9132 213.966L79.3955 209.764Z" fill="#EFF0F4"/>
<path opacity="0.03" d="M57.4934 198.812V202.589L32.2964 216.023V211.546L57.4934 198.812Z" fill="black"/>
<path opacity="0.03" d="M79.3955 209.764L57.4936 198.812L57.3037 202.616L78.9132 213.966L79.3955 209.764Z" fill="black"/>
<path d="M79.3955 209.764L79.3413 215.211L57.762 233.179L57.4937 227.62L79.3955 209.764Z" fill="#CCCAD6"/>
<path d="M68.4189 210.626C68.4189 210.626 68.9555 211.349 68.3827 211.811C68.1084 212.031 66.0252 212.796 63.927 213.538C62.896 213.903 61.8619 214.258 61.0359 214.542L59.3205 215.124L58.7718 215.22L55.4557 215.802L52.3505 216.351L50.9909 216.287L50.9336 210.978L54.1985 206.028L55.1301 206.592L55.2929 206.689L57.6262 207.403L64.2104 209.423L67.1738 210.327L67.5205 210.433L68.4189 210.626Z" fill="#FFE09C"/>
<path d="M48.7058 216.281C48.7058 216.281 48.5611 210.505 50.385 208.187C50.385 208.187 51.8653 206.134 52.8692 205.474C52.8692 205.474 53.6861 204.678 54.9011 206.502C54.9011 206.502 51.7567 209.173 51.5276 212.6L51.2985 216.028L48.7058 216.281Z" fill="#E7C4C3"/>
<path d="M54.9126 213.531C55.6484 212.88 55.7979 211.847 55.2463 211.224C54.6948 210.6 53.6512 210.622 52.9154 211.273C52.1795 211.924 52.0301 212.957 52.5816 213.58C53.1331 214.204 54.1767 214.182 54.9126 213.531Z" fill="#FF7F8E"/>
<path d="M53.2642 214.648L53.641 215.076C53.8996 214.707 54.2348 214.398 54.6238 214.171L54.7082 214.138C55.2478 213.951 54.3314 213.71 54.3314 213.71C54.3314 213.71 53.3335 214.316 53.2642 214.648Z" fill="#94CC79"/>
<path d="M58.4491 214.138C58.576 214.285 58.6703 214.458 58.7259 214.645C58.7815 214.831 58.7971 215.027 58.7717 215.22L55.4555 215.802C55.4229 215.5 55.4652 215.194 55.5788 214.913C55.6924 214.631 55.8737 214.381 56.1067 214.186C56.8453 213.538 57.8975 213.514 58.4491 214.138Z" fill="#FF7F8E"/>
<path d="M60.1548 211.45C60.8906 210.799 61.04 209.766 60.4885 209.143C59.937 208.519 58.8934 208.541 58.1576 209.192C57.4217 209.843 57.2723 210.876 57.8238 211.499C58.3753 212.123 59.4189 212.101 60.1548 211.45Z" fill="#FF7F8E"/>
<path d="M63.6649 212.16C63.8236 212.349 63.9311 212.576 63.977 212.819C64.0229 213.062 64.0057 213.312 63.9272 213.547C62.8961 213.911 61.8621 214.267 61.036 214.551L61.0029 214.514C60.4512 213.89 60.6019 212.859 61.3375 212.208C62.0731 211.557 63.1132 211.53 63.6649 212.16Z" fill="#FF7F8E"/>
<path d="M60.7646 212.462L61.1415 212.89C61.4 212.521 61.7353 212.213 62.1243 211.986L62.2087 211.952C62.7483 211.766 61.8319 211.524 61.8319 211.524C61.8319 211.524 60.828 212.142 60.7646 212.462Z" fill="#94CC79"/>
<path d="M57.1289 211.829L57.5057 212.257C57.7643 211.888 58.0996 211.58 58.4885 211.353L58.573 211.32C59.1126 211.133 58.1961 210.892 58.1961 210.892C58.1961 210.892 57.1982 211.495 57.1289 211.829Z" fill="#94CC79"/>
<path d="M55.3169 210.821L55.6937 211.249C55.9523 210.881 56.2876 210.572 56.6765 210.345L56.7609 210.312C57.3006 210.125 56.3841 209.884 56.3841 209.884C56.3841 209.884 55.3832 210.49 55.3169 210.821Z" fill="#94CC79"/>
<path d="M67.1798 210.33C67.0761 210.493 66.9503 210.64 66.8059 210.768C66.0704 211.419 65.0273 211.44 64.4756 210.816C64.3161 210.625 64.2084 210.396 64.163 210.152C64.1176 209.907 64.136 209.655 64.2163 209.42L67.1798 210.33Z" fill="#FF7F8E"/>
<path d="M65.73 211.519L66.1068 211.947C66.3654 211.578 66.7006 211.269 67.0896 211.042L67.174 211.009C67.7137 210.822 66.7972 210.581 66.7972 210.581C66.7972 210.581 65.7993 211.187 65.73 211.519Z" fill="#94CC79"/>
<path d="M49.8844 217.587C49.8844 217.587 47.9369 217.68 48.7147 216.267C49.7126 215.851 50.8006 215.699 51.8741 215.826C51.8741 215.826 60.0801 214.922 61.0479 214.159C61.0479 214.159 68.247 211.814 68.4852 211.386C68.4852 211.386 69.0881 211.422 67.4179 212.513C65.7478 213.605 60.0741 215.35 60.0741 215.35L54.0055 216.803L51.7505 216.876L49.8844 217.587Z" fill="#E7C4C3"/>
<path opacity="0.2" d="M49.8844 217.587C49.8844 217.587 47.9369 217.68 48.7147 216.267C49.7126 215.851 50.8006 215.699 51.8741 215.826C51.8741 215.826 60.0801 214.922 61.0479 214.159C61.0479 214.159 68.247 211.814 68.4852 211.386C68.4852 211.386 69.0881 211.422 67.4179 212.513C65.7478 213.605 60.0741 215.35 60.0741 215.35L54.0055 216.803L51.7505 216.876L49.8844 217.587Z" fill="white"/>
<path d="M66.4504 212.691C66.4504 212.691 67.2192 213.159 66.8634 213.801C66.6916 214.102 65.0546 215.61 63.3844 217.078C62.5674 217.801 61.7414 218.522 61.0842 219.098C60.2763 219.8 59.7155 220.282 59.7155 220.282L59.2422 220.584L56.4024 222.366L53.7313 224.042L52.4471 224.494L50.394 219.598L51.5547 213.783L52.631 213.955L52.8179 213.985L55.2477 213.771L62.1062 213.168L65.1933 212.893L65.555 212.86L66.4504 212.691Z" fill="#FFE09C"/>
<path d="M58.5338 219.697C58.7067 219.786 58.8588 219.91 58.9803 220.062C59.1019 220.214 59.1901 220.389 59.2393 220.577L56.3994 222.359C56.2561 222.091 56.1812 221.792 56.1812 221.488C56.1812 221.184 56.2561 220.884 56.3994 220.616C56.8456 219.742 57.7892 219.329 58.5338 219.697Z" fill="#FF7F8E"/>
<path d="M50.3245 225.347C50.3245 225.347 48.0152 220.05 48.8171 217.207C48.8171 217.207 49.4201 214.747 50.0924 213.752C50.0924 213.752 50.5506 212.706 52.3624 213.939C52.3624 213.939 50.4571 217.596 51.5334 220.873L52.6247 224.126L50.3245 225.347Z" fill="#E7C4C3"/>
<path d="M55.0263 220.497C55.4631 219.617 55.2127 218.604 54.467 218.234C53.7214 217.864 52.7628 218.277 52.326 219.157C51.8892 220.037 52.1396 221.05 52.8853 221.42C53.631 221.79 54.5896 221.377 55.0263 220.497Z" fill="#FF7F8E"/>
<path d="M53.9241 222.109L54.4336 222.362C54.5345 221.924 54.7289 221.513 55.0034 221.156L55.0667 221.093C55.4978 220.716 54.5572 220.84 54.5572 220.84C54.5572 220.84 53.8638 221.786 53.9241 222.109Z" fill="#94CC79"/>
<path d="M62.6186 215.893C62.8369 216.008 63.0219 216.178 63.156 216.385C63.2901 216.593 63.3687 216.831 63.3844 217.077C62.5674 217.801 61.7413 218.521 61.0841 219.097L61.0419 219.076C60.2973 218.705 60.0471 217.695 60.4842 216.815C60.9213 215.935 61.874 215.525 62.6186 215.893Z" fill="#FF7F8E"/>
<path d="M55.2446 213.768C55.3772 214.032 55.4447 214.324 55.4416 214.62C55.4384 214.916 55.3647 215.206 55.2265 215.468C54.7894 216.348 53.8337 216.761 53.0861 216.39C52.3384 216.02 52.0912 215.01 52.5283 214.129C52.5585 214.069 52.5916 214.01 52.6278 213.951L52.8147 213.982L55.2446 213.768Z" fill="#FF7F8E"/>
<path d="M59.0986 216.595C59.5354 215.715 59.285 214.702 58.5393 214.332C57.7936 213.961 56.8351 214.375 56.3983 215.254C55.9615 216.134 56.2119 217.148 56.9576 217.518C57.7032 217.888 58.6618 217.475 59.0986 216.595Z" fill="#FF7F8E"/>
<path d="M56.4412 218.054L56.9507 218.307C57.0516 217.869 57.2459 217.458 57.5205 217.102L57.5838 217.038C58.0149 216.661 57.0743 216.785 57.0743 216.785C57.0743 216.785 56.3809 217.72 56.4412 218.054Z" fill="#94CC79"/>
<path d="M54.3854 217.804L54.8949 218.057C54.9958 217.619 55.1902 217.208 55.4647 216.852L55.528 216.788C55.9591 216.411 55.0185 216.535 55.0185 216.535C55.0185 216.535 54.3221 217.473 54.3854 217.804Z" fill="#94CC79"/>
<path d="M60.0501 217.286L60.5596 217.539C60.6605 217.101 60.8548 216.689 61.1294 216.333L61.1927 216.27C61.6238 215.893 60.6832 216.016 60.6832 216.016C60.6832 216.016 59.9898 216.951 60.0501 217.286Z" fill="#94CC79"/>
<path d="M59.806 215.121L60.3154 215.374C60.4163 214.936 60.6107 214.524 60.8852 214.168L60.9485 214.105C61.3796 213.728 60.4391 213.851 60.4391 213.851C60.4391 213.851 59.7457 214.786 59.806 215.121Z" fill="#94CC79"/>
<path d="M65.1902 212.884C65.1546 213.073 65.0927 213.257 65.0063 213.429C64.5692 214.31 63.6135 214.723 62.8658 214.352C62.6448 214.234 62.458 214.061 62.3238 213.85C62.1896 213.639 62.1125 213.396 62.1001 213.146L65.1902 212.884Z" fill="#FF7F8E"/>
<path d="M64.2947 214.53L64.8042 214.783C64.9051 214.345 65.0995 213.933 65.374 213.577L65.4373 213.514C65.8684 213.137 64.9278 213.261 64.9278 213.261C64.9278 213.261 64.2344 214.195 64.2947 214.53Z" fill="#94CC79"/>
<path d="M51.9045 226.131C51.9045 226.131 50.1349 226.947 50.3248 225.347C51.0928 224.586 52.0439 224.036 53.0863 223.749C53.0863 223.749 60.3427 219.809 60.9577 218.75C60.9577 218.75 66.7429 213.867 66.8032 213.381C66.8032 213.381 67.3851 213.185 66.2365 214.828C65.0879 216.471 60.5085 220.222 60.5085 220.222L55.4348 223.839L53.3757 224.744L51.9045 226.131Z" fill="#E7C4C3"/>
<path opacity="0.2" d="M51.9045 226.131C51.9045 226.131 50.1349 226.947 50.3248 225.347C51.0928 224.586 52.0439 224.036 53.0863 223.749C53.0863 223.749 60.3427 219.809 60.9577 218.75C60.9577 218.75 66.7429 213.867 66.8032 213.381C66.8032 213.381 67.3851 213.185 66.2365 214.828C65.0879 216.471 60.5085 220.222 60.5085 220.222L55.4348 223.839L53.3757 224.744L51.9045 226.131Z" fill="white"/>
<path d="M57.4934 227.619L32.2964 211.545V215.967L57.7617 233.178L57.4934 227.619Z" fill="#CCCAD6"/>
<path d="M61.3496 210.376L61.7264 210.804C61.985 210.435 62.3203 210.127 62.7092 209.9L62.7937 209.867C63.3333 209.68 62.4168 209.438 62.4168 209.438C62.4168 209.438 61.4189 210.05 61.3496 210.376Z" fill="#94CC79"/>
<path d="M57.6321 207.403C57.6557 207.698 57.6084 207.995 57.4941 208.268C57.3797 208.541 57.2017 208.783 56.9749 208.973C56.2393 209.625 55.1962 209.646 54.6445 209.022C54.0928 208.398 54.2435 207.367 54.9791 206.715C55.0294 206.671 55.0816 206.629 55.1359 206.589L55.2987 206.685L57.6321 207.403Z" fill="#FF7F8E"/>
<path d="M29.6011 213.107L32.2963 211.546L16.1676 181.601L14.2773 183.437L29.6011 213.107Z" fill="#CCCAD6"/>
<path d="M258.997 146.793C258.997 146.793 259.901 157.947 262.012 162.469C264.122 166.991 264.424 170.006 264.424 170.006C264.424 170.006 271.918 185.83 280.251 187.907C280.729 188.017 281.167 188.258 281.516 188.602C281.866 188.947 282.112 189.381 282.228 189.858C282.563 191.386 281.457 193.105 273.166 191.411C273.166 191.411 264.99 188.212 260.785 185.08C258.775 183.567 256.478 182.479 254.035 181.881C251.135 181.191 248.029 179.505 249.048 175.424L252.365 170.6C252.365 170.6 249.651 164.872 248.144 150.401C246.637 135.931 258.997 146.793 258.997 146.793Z" fill="#FFBCC7"/>
<path opacity="0.03" d="M258.997 146.793C258.997 146.793 259.901 157.947 262.012 162.469C264.122 166.991 264.424 170.006 264.424 170.006C264.424 170.006 271.918 185.83 280.251 187.907C280.729 188.017 281.167 188.258 281.516 188.602C281.866 188.947 282.112 189.381 282.228 189.858C282.563 191.386 281.457 193.105 273.166 191.411C273.166 191.411 264.99 188.212 260.785 185.08C258.775 183.567 256.478 182.479 254.035 181.881C251.135 181.191 248.029 179.505 249.048 175.424L252.365 170.6C252.365 170.6 249.651 164.872 248.144 150.401C246.637 135.931 258.997 146.793 258.997 146.793Z" fill="black"/>
<path d="M60.9303 145.887L60.0259 154.932C60.0259 154.932 57.0112 161.564 52.4891 160.66C51.9937 160.559 51.5037 160.433 51.0209 160.283C48.5642 159.502 46.3039 158.202 44.393 156.471C42.4821 154.741 40.9652 152.62 39.9449 150.253C39.2123 148.592 39.77 146.602 39.8273 146.189C40.1288 144.079 42.842 133.527 48.57 140.16C54.2979 146.792 57.6141 150.108 57.6141 150.108L60.9303 145.887Z" fill="#FEB7C5"/>
<path d="M177.298 126.594L172.475 137.145L169.159 140.461L167.603 138.824L166.982 138.17L163.431 134.432L166.747 126.594H177.298Z" fill="#FFBCC7"/>
<path d="M110.07 110.616L84.4449 122.675L80.8272 126.896C80.8272 126.896 78.114 129.006 75.7022 129.609C73.2904 130.212 68.4669 134.131 68.4669 134.131L59.4227 140.462L55.2021 143.175L59.4227 146.491L72.386 143.477L88.0625 140.16L96.2022 136.241L119.416 116.043L110.07 110.616Z" fill="#5D526D"/>
<path opacity="0.03" d="M60.9303 145.887L60.0259 154.932C60.0259 154.932 57.0112 161.564 52.4891 160.66C51.9937 160.559 51.5037 160.433 51.0209 160.283C48.5642 159.502 46.3039 158.202 44.393 156.471C42.4821 154.741 40.9652 152.62 39.9449 150.253C39.2123 148.592 39.77 146.602 39.8273 146.189C40.1288 144.079 42.842 133.527 48.57 140.16C54.2979 146.792 57.6141 150.108 57.6141 150.108L60.9303 145.887Z" fill="black"/>
<path opacity="0.05" d="M110.07 110.616L84.4449 122.675L80.8272 126.896C80.8272 126.896 78.114 129.006 75.7022 129.609C73.2904 130.212 68.4669 134.131 68.4669 134.131L59.4227 140.462L55.2021 143.175L59.4227 146.491L72.386 143.477L88.0625 140.16L96.2022 136.241L119.416 116.043L110.07 110.616Z" fill="black"/>
<path d="M78.7172 149.506L74.5147 151.185L70.6589 152.729C68.411 153.638 66.0016 154.08 63.5773 154.028C63.095 154.028 62.6337 154.028 62.1936 154.028C58.6983 154.198 55.2695 153.03 52.6038 150.763C52.1003 150.332 51.5698 149.928 51.0301 149.557C48.7693 147.96 47.169 145.593 46.5296 142.9C45.8902 140.207 46.2556 137.373 47.5572 134.93L47.6657 134.731C51.2834 128.098 54.5995 134.128 54.5995 134.128C54.5995 134.128 57.9157 141.363 60.3275 143.172C61.9705 144.405 67.3879 143.259 70.677 142.403C72.2175 142.002 73.2907 141.665 73.2907 141.665L78.7172 149.506Z" fill="#FEB7C5"/>
<path opacity="0.1" d="M74.5145 151.184C75.4973 144.739 73.0071 142.843 70.6768 142.406C72.2173 142.005 73.2905 141.667 73.2905 141.667L78.717 149.505L74.5145 151.184Z" fill="black"/>
<path d="M124.239 113.932L92.8864 135.939C92.8864 135.939 84.7466 140.763 81.7319 139.557C78.7172 138.351 67.8643 142.571 67.8643 142.571C67.8643 142.571 76.9084 139.858 75.0996 151.314L89.5702 146.491C89.5702 146.491 111.276 143.777 114.291 142.27C117.306 140.763 129.967 114.836 129.967 114.836L124.239 113.932Z" fill="#5D526D"/>
<path d="M241.21 110.315C241.21 110.315 243.019 105.792 249.953 108.204C256.886 110.616 255.702 112.612 255.702 112.612L254.776 116.645L251.159 118.756L245.129 118.153L241.21 110.315Z" fill="#FFBCC7"/>
<path opacity="0.03" d="M255.756 112.449C255.746 112.506 255.728 112.561 255.702 112.612L254.776 116.646L251.159 118.756L245.129 118.153L241.21 110.315C241.732 109.238 242.639 108.397 243.751 107.957C245.099 107.393 247.089 107.21 249.953 108.204C255.72 110.209 255.871 111.928 255.756 112.449Z" fill="black"/>
<path opacity="0.1" d="M255.756 112.449C255.746 112.506 255.728 112.56 255.702 112.612L254.776 116.645L251.159 118.756L245.129 118.153L241.21 110.315C241.732 109.238 242.639 108.397 243.751 107.957C243.284 109.998 242.374 116.097 248.144 116.344C255.078 116.645 255.681 111.822 255.681 111.822L255.756 112.449Z" fill="black"/>
<path d="M208.651 92.2256L199.607 109.711L198.763 106.048L199.23 105.132L203.97 95.8583L204.129 95.5418L208.651 92.2256Z" fill="#FFBCC7"/>
<path d="M212.269 111.52C212.269 111.52 236.688 110.616 243.924 107.902C243.924 107.902 241.21 116.645 248.144 116.946C255.078 117.248 255.681 112.424 255.681 112.424L257.791 129.91C257.791 129.91 260.203 141.064 259.902 144.38L261.107 151.013C261.107 151.013 244.828 156.439 243.019 152.822C243.019 152.822 244.225 135.939 239.402 132.322L224.931 139.858C224.931 139.858 211.063 144.983 206.24 141.366C201.416 137.748 212.269 111.52 212.269 111.52Z" fill="#94B6F0"/>
<path opacity="0.03" d="M212.269 111.52C212.269 111.52 236.688 110.616 243.924 107.902C243.924 107.902 241.21 116.645 248.144 116.946C255.078 117.248 255.681 112.424 255.681 112.424L257.791 129.91C257.791 129.91 260.203 141.064 259.902 144.38L261.107 151.013C261.107 151.013 244.828 156.439 243.019 152.822C243.019 152.822 244.225 135.939 239.402 132.322L224.931 139.858C224.931 139.858 211.063 144.983 206.24 141.366C201.416 137.748 212.269 111.52 212.269 111.52Z" fill="black"/>
<path d="M167.048 88.3066C167.048 88.3066 167.35 96.1449 169.158 100.064C170.242 102.405 171.149 104.823 171.872 107.299L179.408 116.343L182.423 119.057C182.423 119.057 193.879 119.057 195.085 123.88C196.291 128.704 177.6 125.388 177.6 125.388L174.886 122.674L162.225 114.836L154.989 92.8287L167.048 88.3066Z" fill="#FEB7C5"/>
<path d="M109.467 87.4023C109.467 87.4023 103.739 102.174 98.9157 106.697C94.0921 111.219 91.6803 110.013 91.6803 110.013C91.6803 110.013 79.0186 119.961 86.5553 122.373C94.0921 124.785 98.0112 114.233 98.0112 114.233L108.864 108.807C108.864 108.807 118.813 100.064 118.21 93.7332C117.607 87.4023 109.467 87.4023 109.467 87.4023Z" fill="#FEB7C5"/>
<path opacity="0.03" d="M109.467 87.4023C109.467 87.4023 103.739 102.174 98.9157 106.697C94.0921 111.219 91.6803 110.013 91.6803 110.013C91.6803 110.013 79.0186 119.961 86.5553 122.373C94.0921 124.785 98.0112 114.233 98.0112 114.233L108.864 108.807C108.864 108.807 118.813 100.064 118.21 93.7332C117.607 87.4023 109.467 87.4023 109.467 87.4023Z" fill="black"/>
<path d="M226.438 91.0199C226.438 95.2404 211.364 87.1007 211.364 87.1007C211.468 86.801 211.597 86.5106 211.75 86.2325C212.561 84.7251 214.765 81.9787 219.504 83.7845C224.364 85.6356 225.835 86.4224 226.275 88.6081C226.404 89.4052 226.459 90.2126 226.438 91.0199Z" fill="#FFBCC7"/>
<path d="M151.673 78.9611C151.673 78.9611 131.173 88.6082 130.57 88.3067C129.967 88.0053 122.129 86.1964 125.747 78.9611C126.794 76.8467 127.603 74.6222 128.159 72.3288C128.772 69.9663 129.076 67.5342 129.063 65.0934C129.063 65.0934 141.725 59.3655 142.629 65.9979C142.931 68.1443 143.624 69.6155 144.438 70.6496C145.391 71.899 146.8 72.7197 148.357 72.9317L151.673 78.9611Z" fill="#FEB7C5"/>
<path opacity="0.1" d="M133.754 79.8451C131.52 79.9596 127.95 80.9635 127.857 73.8367C127.857 73.8367 122.147 75.1723 117.652 76.146C116.364 76.4262 115.151 76.9794 114.094 77.7683C113.038 78.5573 112.163 79.5636 111.529 80.7193L107.354 88.3074C107.354 88.3074 109.163 93.4324 114.891 94.0353C114.891 94.0353 116.097 106.094 105.244 113.631C94.3906 121.168 133.28 131.719 133.28 131.719L152.575 125.388C152.575 125.388 150.464 103.682 156.795 97.9544C156.795 97.9544 165.839 97.3515 169.155 88.9103C169.155 88.9103 163.126 81.0721 163.126 78.0573C163.126 75.0426 146.244 72.6309 146.244 72.6309C146.244 72.6309 144.2 80.8912 137.082 79.9506C135.978 79.8138 134.864 79.7785 133.754 79.8451Z" fill="black"/>
<path d="M133.754 79.2415C131.52 79.3561 127.95 80.36 127.857 73.2332C127.857 73.2332 122.147 74.5687 117.652 75.5425C116.364 75.8227 115.151 76.3759 114.094 77.1648C113.038 77.9537 112.163 78.96 111.529 80.1158L107.354 87.7038C107.354 87.7038 109.163 92.8289 114.891 93.4318C114.891 93.4318 116.097 105.491 105.244 113.027C94.3906 120.564 133.28 131.116 133.28 131.116L152.575 124.785C152.575 124.785 150.464 103.079 156.795 97.3509C156.795 97.3509 165.839 96.748 169.155 88.3068C169.155 88.3068 163.126 80.4685 163.126 77.4538C163.126 74.4391 146.244 72.0273 146.244 72.0273C146.244 72.0273 144.2 80.2877 137.082 79.3471C135.978 79.2103 134.864 79.175 133.754 79.2415Z" fill="#D6E6F9"/>
<path opacity="0.1" d="M166.982 138.17L163.431 134.432L166.747 126.594H169.46C169.46 126.594 171.206 134.736 166.982 138.17Z" fill="black"/>
<path d="M124.842 135.336L120.32 138.351C118.7 135.296 116.752 132.426 114.511 129.792C112.271 127.166 109.446 124.492 106.151 122.674C97.4084 117.851 114.592 115.138 114.592 115.138C115.834 116.961 117.247 118.661 118.813 120.214C121.846 123.229 126.169 126.244 130.57 125.086C138.71 122.976 124.842 135.336 124.842 135.336Z" fill="#FFBCC7"/>
<path d="M151.673 118.152H132.982V124.483H151.673V118.152Z" fill="#CCCAD6"/>
<path d="M139.011 105.189C139.011 105.189 136.298 99.1599 134.791 97.351C133.283 95.5422 132.982 89.2113 132.982 89.2113C132.982 89.2113 131.173 78.0569 136.599 75.6451C142.026 73.2334 140.519 89.5128 140.519 89.5128L140.217 91.9246C140.217 91.9246 148.357 99.4613 148.055 105.189C147.754 110.917 139.011 105.189 139.011 105.189Z" fill="#FFBCC7"/>
<path opacity="0.03" d="M139.011 105.189C139.011 105.189 136.298 99.1599 134.791 97.351C133.283 95.5422 132.982 89.2113 132.982 89.2113C132.982 89.2113 131.173 78.0569 136.599 75.6451C142.026 73.2334 140.519 89.5128 140.519 89.5128L140.217 91.9246C140.217 91.9246 148.357 99.4613 148.055 105.189C147.754 110.917 139.011 105.189 139.011 105.189Z" fill="black"/>
<path opacity="0.1" d="M119.717 121.167C119.717 121.167 122.431 119.961 123.033 118.152C123.636 116.343 131.173 117.248 131.173 117.248L140.217 115.439C140.217 115.439 142.629 111.821 140.217 110.013C137.806 108.204 137.806 104.285 137.806 104.285C137.806 104.285 146.174 104.285 148.152 102.138C148.228 102.056 148.297 101.967 148.357 101.873C149.864 99.461 156.195 121.77 156.195 121.77L141.122 118.755L129.666 125.388C129.666 125.388 123.033 126.593 119.717 121.167Z" fill="black"/>
<path d="M119.717 120.866C119.717 120.866 122.431 119.66 123.033 117.851C123.636 116.043 131.173 116.947 131.173 116.947L140.217 115.138C140.217 115.138 142.629 111.521 140.217 109.712C137.806 107.903 137.806 103.984 137.806 103.984C137.806 103.984 146.174 103.984 148.152 101.837C148.228 101.755 148.297 101.667 148.357 101.572C149.864 99.1602 156.195 121.469 156.195 121.469L141.122 118.454L129.666 125.087C129.666 125.087 123.033 126.293 119.717 120.866Z" fill="#FF7F8E"/>
<path opacity="0.03" d="M119.717 120.866C119.717 120.866 122.431 119.66 123.033 117.851C123.636 116.043 131.173 116.947 131.173 116.947L140.217 115.138C140.217 115.138 142.629 111.521 140.217 109.712C137.806 107.903 137.806 103.984 137.806 103.984C137.806 103.984 146.174 103.984 148.152 101.837C148.228 101.755 148.297 101.667 148.357 101.572C149.864 99.1602 156.195 121.469 156.195 121.469L141.122 118.454L129.666 125.087C129.666 125.087 123.033 126.293 119.717 120.866Z" fill="black"/>
<path d="M159.813 125.086L165.842 124.483C165.842 124.483 168.556 126.594 169.159 126.594C169.159 126.594 170.967 135.035 166.445 138.351C161.923 141.667 156.195 135.336 156.195 135.336L151.07 129.307L159.813 125.086Z" fill="#CCCAD6"/>
<path opacity="0.1" d="M174.329 126.594H177.298L172.475 137.145L169.159 140.461L167.603 138.824L174.329 126.594Z" fill="black"/>
<path d="M252.063 156.439C252.063 156.439 244.526 156.138 235.181 152.822C225.835 149.505 227.342 141.667 227.342 141.667L221.877 128.255L220.71 125.388L232.467 118.152C232.467 118.152 232.895 120 233.447 122.593C234.288 126.53 235.419 132.183 235.784 135.638C236.386 141.366 243.32 144.079 243.32 144.079L255.681 149.204C255.681 149.204 260.203 147.998 263.217 150.108C266.232 152.219 252.063 156.439 252.063 156.439Z" fill="#FFBCC7"/>
<path opacity="0.1" d="M233.447 122.593C229.67 123.522 224.237 126.771 221.877 128.255L220.71 125.388L232.467 118.152C232.467 118.152 232.904 120 233.447 122.593Z" fill="black"/>
<path opacity="0.1" d="M118.813 120.564C118.815 122.324 118.431 124.062 117.688 125.656C116.944 127.251 115.86 128.663 114.511 129.792C112.271 127.166 109.446 124.492 106.151 122.674C97.4084 117.851 114.592 115.138 114.592 115.138C115.834 116.961 117.247 118.661 118.813 120.214C118.81 120.329 118.813 120.447 118.813 120.564Z" fill="black"/>
<path d="M106.151 132.624C112.811 132.624 118.21 127.225 118.21 120.565C118.21 113.905 112.811 108.506 106.151 108.506C99.4912 108.506 94.0923 113.905 94.0923 120.565C94.0923 127.225 99.4912 132.624 106.151 132.624Z" fill="#FFBCC7"/>
<path opacity="0.1" d="M204.129 95.5418L208.651 92.2256L199.607 109.711L198.763 106.042L199.23 105.138C205.302 100.917 204.395 96.9979 203.97 95.8643L204.129 95.5418Z" fill="black"/>
<path opacity="0.1" d="M226.438 91.0198C226.438 95.2404 211.364 87.1007 211.364 87.1007C211.468 86.801 211.597 86.5105 211.75 86.2324C222.802 91.6167 225.639 89.4612 226.272 88.596C226.403 89.3969 226.459 90.2084 226.438 91.0198Z" fill="black"/>
<path d="M176.092 124.483L166.144 142.572L173.379 147.094C173.379 147.094 181.395 150.16 188.673 148.782C191.064 148.331 193.48 148.022 195.908 147.856C197.442 147.751 199.224 147.555 201.063 147.253C203.778 146.793 206.303 145.56 208.335 143.702C210.367 141.843 211.819 139.438 212.519 136.774C214.376 129.702 216.957 118.834 216.299 115.27C216.273 115.121 216.237 114.974 216.191 114.83L219.205 123.874L220.713 128.396C220.713 128.396 231.566 121.161 235.786 121.764C235.786 121.764 230.661 107.595 230.058 101.565C229.456 95.536 226.441 88.6022 226.441 88.6022C226.441 88.6022 224.933 93.1243 211.066 86.1904L204.132 95.536C204.132 95.536 206.845 100.36 199.007 105.485L190.264 125.683L176.092 124.483Z" fill="#94B6F0"/>
<path opacity="0.1" d="M177.6 147.998C177.6 147.998 174.284 148.902 162.828 146.189C151.372 143.476 143.835 145.285 140.82 146.189C137.806 147.094 127.254 145.586 121.225 144.079C115.195 142.572 114.592 133.527 114.592 133.527C116.703 133.829 126.048 125.086 126.048 125.086C131.475 120.263 141.423 120.263 141.423 120.263L145.288 120.956L161.622 123.88L163.5 126.717L177.6 147.998Z" fill="black"/>
<path d="M177.298 148.3C177.298 148.3 173.982 149.204 162.526 146.491C151.07 143.778 143.533 145.587 140.519 146.491C137.504 147.395 126.952 145.888 120.923 144.381C114.893 142.873 114.291 133.829 114.291 133.829C116.401 134.131 125.746 125.388 125.746 125.388C131.173 120.564 141.121 120.564 141.121 120.564L144.986 121.258L161.32 124.182L163.198 127.019L177.298 148.3Z" fill="#FF7F8E"/>
<path opacity="0.1" d="M170.841 126.594C170.841 126.594 171.721 127.347 172.927 126.594H170.841Z" fill="black"/>
<path opacity="0.1" d="M163.198 127.019L139.313 144.079C132.454 146.407 128.381 145.101 125.964 142.732C121.441 138.285 122.949 130.618 128.731 127.99C131.226 126.896 133.885 126.22 136.599 125.991L144.986 121.258L161.32 124.182L163.198 127.019Z" fill="black"/>
<path opacity="0.1" d="M144.441 70.6493C142.437 72.9267 139.649 74.3652 136.632 74.6781C133.614 74.991 130.59 74.1553 128.162 72.3375C128.775 69.975 129.079 67.543 129.066 65.1022C129.066 65.1022 141.728 59.3743 142.632 66.0066C142.922 68.1441 143.624 69.6243 144.441 70.6493Z" fill="black"/>
<path d="M135.394 74.1382C142.054 74.1382 147.453 68.7393 147.453 62.0794C147.453 55.4194 142.054 50.0205 135.394 50.0205C128.734 50.0205 123.335 55.4194 123.335 62.0794C123.335 68.7393 128.734 74.1382 135.394 74.1382Z" fill="#FEB7C5"/>
<path opacity="0.1" d="M130.534 40.8315C130.151 40.8816 129.791 41.0418 129.497 41.2927C129.108 41.6907 129.105 42.3117 128.954 42.8483C128.653 43.8824 127.8 44.6571 126.88 45.2149C125.961 45.7726 124.951 46.1856 124.095 46.8338C122.53 48.0186 121.641 49.8485 120.594 51.5216C119.196 53.741 117.444 55.7174 115.409 57.3732C115.711 58.0515 116.772 57.8525 117.363 58.3047C118.077 58.8504 117.77 59.9779 117.363 60.7798C116.956 61.5817 116.552 62.6399 117.17 63.2911C117.362 63.4435 117.541 63.6109 117.706 63.7915C118.18 64.4819 117.281 65.32 117.212 66.1551C117.143 66.9901 117.875 67.6142 118.611 67.9639C119.346 68.3136 120.178 68.5246 120.721 69.1155C120.178 69.8662 119.615 70.8279 120.028 71.6569C120.495 72.5945 121.837 72.6005 122.846 72.3503C123.111 72.2552 123.397 72.2395 123.669 72.3051C123.904 72.4286 124.109 72.6002 124.272 72.8085C125.421 73.936 127.679 73.4597 128.273 71.9614C128.596 71.1474 128.466 70.237 128.499 69.3627C128.553 67.9759 129.039 66.6495 129.214 65.2627C129.515 62.9323 128.912 60.5869 128.873 58.2384C128.855 58.0848 128.887 57.9297 128.963 57.7953C129.034 57.722 129.119 57.6636 129.213 57.6238C129.306 57.5839 129.407 57.5633 129.509 57.5631C130.826 57.3876 132.132 57.1339 133.419 56.8034C134.414 56.5472 135.529 56.1251 135.873 55.1574C135.671 55.8689 136.03 56.6467 136.585 57.135C137.168 57.5911 137.842 57.9169 138.562 58.0907C140.296 58.6153 142.3 58.9258 143.808 57.9249C143.726 59.782 143.654 61.6993 144.311 63.4388C144.968 65.1783 146.557 66.7067 148.414 66.6917C149.162 66.6917 150.069 66.1731 149.922 65.4406C149.837 65.0185 149.436 64.7472 149.129 64.4487C148.508 63.8458 148.224 62.7514 148.827 62.1395C149.098 61.9314 149.381 61.7401 149.674 61.5667C150.434 60.9637 150.488 59.8603 150.446 58.8986C150.358 56.9138 150.132 54.9375 149.771 52.9838C149.685 52.4823 149.56 51.9883 149.397 51.5066C149.133 50.8363 148.803 50.194 148.411 49.5892L145.478 44.7144C145.14 44.0661 144.684 43.4864 144.133 43.0051C142.08 41.4284 139.702 43.3488 137.73 42.2393C136.705 41.6635 135.97 40.934 134.77 40.6627C133.377 40.3431 131.912 40.53 130.534 40.8315Z" fill="black"/>
<path d="M130.534 40.5297C130.151 40.5799 129.791 40.7401 129.497 40.991C129.108 41.3889 129.105 42.0099 128.954 42.5466C128.653 43.5806 127.8 44.3554 126.88 44.9131C125.961 45.4708 124.951 45.8838 124.095 46.532C122.53 47.7168 121.641 49.5467 120.594 51.2199C119.196 53.4392 117.444 55.4157 115.409 57.0714C115.711 57.7498 116.772 57.5508 117.363 58.003C118.077 58.5487 117.77 59.6762 117.363 60.4781C116.956 61.28 116.552 62.3381 117.17 62.9893C117.362 63.1418 117.541 63.3091 117.706 63.4898C118.18 64.1801 117.281 65.0182 117.212 65.8533C117.143 66.6884 117.875 67.3124 118.611 67.6621C119.346 68.0118 120.178 68.2229 120.721 68.8137C120.178 69.5644 119.615 70.5261 120.028 71.3552C120.495 72.2927 121.837 72.2988 122.846 72.0485C123.111 71.9535 123.397 71.9378 123.669 72.0033C123.904 72.1268 124.109 72.2984 124.272 72.5068C125.421 73.6343 127.679 73.158 128.273 71.6596C128.596 70.8457 128.466 69.9352 128.499 69.0609C128.553 67.6742 129.039 66.3477 129.214 64.9609C129.515 62.6306 128.912 60.2851 128.873 57.9367C128.855 57.7831 128.887 57.6279 128.963 57.4935C129.034 57.4202 129.119 57.3619 129.213 57.322C129.306 57.2821 129.407 57.2615 129.509 57.2614C130.826 57.0858 132.132 56.8321 133.419 56.5017C134.414 56.2454 135.529 55.8234 135.873 54.8556C135.671 55.5671 136.03 56.3449 136.585 56.8333C137.168 57.2893 137.842 57.6152 138.562 57.7889C140.296 58.3135 142.3 58.624 143.808 57.6231C143.726 59.4802 143.654 61.3976 144.311 63.137C144.968 64.8765 146.557 66.405 148.414 66.3899C149.162 66.3899 150.069 65.8714 149.922 65.1388C149.837 64.7168 149.436 64.4454 149.129 64.147C148.508 63.544 148.224 62.4497 148.827 61.8377C149.098 61.6296 149.381 61.4383 149.674 61.2649C150.434 60.662 150.488 59.5586 150.446 58.5969C150.358 56.6121 150.132 54.6357 149.771 52.682C149.685 52.1805 149.56 51.6866 149.397 51.2048C149.133 50.5346 148.803 49.8923 148.411 49.2875L145.478 44.4127C145.14 43.7643 144.684 43.1847 144.133 42.7033C142.08 41.1266 139.702 43.047 137.73 41.9376C136.705 41.3618 135.97 40.6322 134.77 40.3609C133.377 40.0413 131.912 40.2282 130.534 40.5297Z" fill="#8E6F80"/>
<path d="M136.88 66.963C136.88 66.963 135.975 66.9419 135.933 67.6744C135.912 68.0241 136.482 70.1706 137.088 72.311C137.389 73.3632 137.691 74.4214 137.932 75.2534C138.233 76.2814 138.441 76.9899 138.441 76.9899L138.68 77.4933L140.106 80.5292L141.447 83.3841L142.282 84.4603L146.656 81.4456L148.827 75.9257L147.829 75.4886L147.657 75.4132L145.731 73.9058L140.305 69.6852L137.857 67.786L137.555 67.5629L136.88 66.963Z" fill="#FFE09C"/>
<path d="M143.6 86.3292C143.6 86.3292 148.405 83.1215 149.252 80.2997C149.252 80.2997 150.078 77.9061 150.048 76.7032C150.048 76.7032 150.229 75.5757 148.037 75.633C148.037 75.633 147.663 79.742 144.992 81.9006L142.321 84.0621L143.6 86.3292Z" fill="#E7C4C3"/>
<path d="M145.281 80.0221C145.389 79.0458 144.806 78.1798 143.979 78.0879C143.151 77.996 142.393 78.7129 142.284 79.6892C142.176 80.6656 142.759 81.5316 143.586 81.6235C144.413 81.7154 145.172 80.9985 145.281 80.0221Z" fill="#FF7F8E"/>
<path d="M142.315 81.6686L141.749 81.6053C141.903 81.1803 141.964 80.7267 141.926 80.2758C141.926 80.2457 141.919 80.2166 141.905 80.1884C141.749 79.6397 142.472 80.2517 142.472 80.2517C142.472 80.2517 142.547 81.4214 142.315 81.6686Z" fill="#94CC79"/>
<path d="M139.75 77.1373C139.556 77.1185 139.361 77.1408 139.177 77.2026C138.992 77.2644 138.823 77.3644 138.68 77.4961L140.106 80.5319C140.371 80.3848 140.597 80.1744 140.762 79.9193C140.927 79.6643 141.027 79.3725 141.052 79.0698C141.158 78.093 140.576 77.2278 139.75 77.1373Z" fill="#FF7F8E"/>
<path d="M145.725 73.9268C145.47 74.0775 145.255 74.2869 145.098 74.5376C144.941 74.7883 144.846 75.0729 144.821 75.3678C144.712 76.3446 145.294 77.2098 146.12 77.3002C146.946 77.3907 147.706 76.6762 147.814 75.6994C147.814 75.6311 147.814 75.5637 147.814 75.4974L147.642 75.4221L145.725 73.9268Z" fill="#FF7F8E"/>
<path d="M143.963 74.5397C144.072 73.5634 143.489 72.6974 142.661 72.6055C141.834 72.5135 141.075 73.2305 140.967 74.2068C140.858 75.1831 141.441 76.0491 142.269 76.1411C143.096 76.233 143.855 75.5161 143.963 74.5397Z" fill="#FF7F8E"/>
<path d="M144.272 77.7888L143.705 77.7255C143.86 77.3004 143.921 76.8468 143.883 76.396C143.883 76.3658 143.876 76.3367 143.862 76.3085C143.705 75.7599 144.429 76.3718 144.429 76.3718C144.429 76.3718 144.495 77.5416 144.272 77.7888Z" fill="#94CC79"/>
<path d="M142.397 76.8845L141.83 76.8212C141.985 76.3961 142.046 75.9425 142.008 75.4917C142.008 75.4615 142.001 75.4324 141.987 75.4042C141.83 74.8556 142.554 75.4675 142.554 75.4675C142.554 75.4675 142.629 76.6373 142.397 76.8845Z" fill="#94CC79"/>
<path d="M138.369 71.7286C138.123 71.7081 137.876 71.7511 137.651 71.8535C137.426 71.9559 137.231 72.1143 137.085 72.3135C137.386 73.3656 137.688 74.4238 137.929 75.2558H137.977C138.803 75.3463 139.563 74.6318 139.672 73.655C139.78 72.6783 139.195 71.8191 138.369 71.7286Z" fill="#FF7F8E"/>
<path d="M139.777 74.2888L139.21 74.2254C139.365 73.8004 139.426 73.3468 139.388 72.896C139.388 72.8658 139.381 72.8367 139.367 72.8085C139.21 72.2599 139.934 72.8718 139.934 72.8718C139.934 72.8718 140.009 74.0416 139.777 74.2888Z" fill="#94CC79"/>
<path d="M141.155 72.5974L140.588 72.5341C140.743 72.109 140.803 71.6554 140.766 71.2046C140.766 71.1744 140.759 71.1453 140.745 71.1171C140.588 70.5685 141.311 71.1804 141.311 71.1804C141.311 71.1804 141.387 72.3502 141.155 72.5974Z" fill="#94CC79"/>
<path d="M137.832 67.8066C137.76 67.985 137.712 68.1728 137.691 68.3644C137.582 69.3411 138.164 70.2063 138.99 70.2968C139.239 70.3161 139.488 70.2707 139.715 70.165C139.941 70.0594 140.136 69.8971 140.28 69.6938L137.832 67.8066Z" fill="#FF7F8E"/>
<path d="M137.697 69.6765L137.13 69.6132C137.285 69.1881 137.346 68.7345 137.308 68.2837C137.308 68.2535 137.301 68.2244 137.287 68.1962C137.13 67.6476 137.854 68.2595 137.854 68.2595C137.854 68.2595 137.941 69.4293 137.697 69.6765Z" fill="#94CC79"/>
<path d="M141.86 86.1458C141.86 86.1458 142.906 87.7919 143.612 86.3418C143.377 85.2866 142.874 84.3096 142.153 83.5049C142.153 83.5049 138.179 76.2696 138.233 75.0427C138.233 75.0427 136.006 67.8073 136.22 67.3672C136.22 67.3672 135.837 66.8878 135.918 68.8745C135.999 70.8612 137.811 76.4988 137.811 76.4988L140.115 82.296L141.354 84.1802L141.86 86.1458Z" fill="#E7C4C3"/>
<path opacity="0.2" d="M141.86 86.1458C141.86 86.1458 142.906 87.7919 143.612 86.3418C143.377 85.2866 142.874 84.3096 142.153 83.5049C142.153 83.5049 138.179 76.2696 138.233 75.0427C138.233 75.0427 136.006 67.8073 136.22 67.3672C136.22 67.3672 135.837 66.8878 135.918 68.8745C135.999 70.8612 137.811 76.4988 137.811 76.4988L140.115 82.296L141.354 84.1802L141.86 86.1458Z" fill="white"/>
<path d="M160.717 103.079C160.717 105.19 153.482 106.396 153.482 106.396L152.46 104.587L144.739 91.0206C144.739 91.0206 139.916 78.9618 144.739 77.153C149.563 75.3441 150.166 89.2118 150.166 89.2118C150.166 89.2118 157.1 96.9385 159.726 100.99C160.341 101.934 160.717 102.682 160.717 103.079Z" fill="#FFBCC7"/>
<path opacity="0.1" d="M160.717 103.079C160.717 105.189 153.482 106.395 153.482 106.395L152.46 104.586C155.155 104.499 158.586 101.903 159.725 100.969C160.34 101.933 160.717 102.681 160.717 103.079Z" fill="black"/>
<path d="M125.662 141.824C128.074 144.194 132.153 145.499 139.011 143.172L166.445 123.576C166.445 123.576 170.364 121.466 166.445 112.121C162.526 102.775 160.114 101.268 160.114 101.268C160.114 101.268 155.291 105.488 151.974 105.187L154.989 114.532L136.298 125.084C133.583 125.313 130.925 125.989 128.43 127.083C122.644 129.714 121.128 137.381 125.662 141.824Z" fill="#FF7F8E"/>
<path opacity="0.1" d="M95.6809 108.632C93.6822 109.5 92.838 111.861 91.2342 113.338C89.6304 114.815 87.291 115.324 85.241 116.19C83.191 117.055 81.1138 118.725 81.1349 120.953C81.156 123.181 83.3447 125.137 82.9739 127.359C82.784 128.502 81.9338 129.451 81.7379 130.591C81.5238 131.821 82.1147 133.066 82.9196 134.022C85.1143 136.626 88.6657 137.522 91.9306 138.49C95.1955 139.457 98.7137 140.901 100.185 143.97C100.577 144.79 100.788 145.68 101.153 146.515C102.41 149.466 105.295 151.48 108.352 152.454C111.409 153.427 114.683 153.506 117.878 153.575C119.054 153.599 120.29 153.617 121.351 153.138C122.412 152.659 123.308 151.531 123.106 150.373C122.949 149.469 122.201 148.797 121.535 148.173C120.23 146.967 118.982 145.619 118.324 143.952C117.667 142.285 117.703 140.274 118.813 138.884C120.127 137.238 122.482 136.901 124.194 135.674C127.266 133.473 127.296 128.185 124.254 125.948C123.172 125.152 121.858 124.742 120.682 124.094C117.146 122.147 115.126 118.252 111.897 115.828C109.332 113.902 106.19 113.045 103.456 111.42C100.92 109.928 99.0996 107.149 95.6809 108.632Z" fill="black"/>
<path d="M95.0779 108.632C93.0791 109.5 92.235 111.861 90.6312 113.338C89.0274 114.815 86.6879 115.324 84.6379 116.19C82.5879 117.055 80.5108 118.725 80.5319 120.953C80.553 123.181 82.7417 125.137 82.3709 127.359C82.1809 128.502 81.3308 129.451 81.1348 130.591C80.9208 131.821 81.5117 133.066 82.3166 134.022C84.5113 136.626 88.0626 137.522 91.3276 138.49C94.5925 139.457 98.1107 140.901 99.5819 143.97C99.9738 144.79 100.185 145.68 100.55 146.515C101.807 149.466 104.692 151.48 107.749 152.454C110.806 153.427 114.08 153.506 117.275 153.575C118.451 153.599 119.687 153.617 120.748 153.138C121.809 152.659 122.705 151.531 122.503 150.373C122.346 149.469 121.598 148.797 120.932 148.173C119.627 146.967 118.379 145.619 117.721 143.952C117.064 142.285 117.1 140.274 118.21 138.884C119.524 137.238 121.879 136.901 123.591 135.674C126.663 133.473 126.693 128.185 123.651 125.948C122.569 125.152 121.255 124.742 120.079 124.094C116.543 122.147 114.523 118.252 111.294 115.828C108.728 113.902 105.587 113.045 102.853 111.42C100.317 109.928 98.4966 107.149 95.0779 108.632Z" fill="#AD5975"/>
<path d="M10.922 24.8408C12.0465 27.7229 10.0899 38.1206 10.0899 38.1206C10.0899 38.1206 1.60651 31.7897 0.482026 28.9167C-0.0320366 27.538 0.0167802 26.0123 0.617936 24.6693C1.21909 23.3262 2.32435 22.2734 3.69507 21.7383C5.06579 21.2031 6.59199 21.2285 7.94413 21.809C9.29627 22.3895 10.3659 23.4785 10.922 24.8408Z" fill="#7E6DFC"/>
<path opacity="0.25" d="M10.922 24.8408C12.0465 27.7229 10.0899 38.1206 10.0899 38.1206C10.0899 38.1206 1.60651 31.7897 0.482026 28.9167C-0.0320366 27.538 0.0167802 26.0123 0.617936 24.6693C1.21909 23.3262 2.32435 22.2734 3.69507 21.7383C5.06579 21.2031 6.59199 21.2285 7.94413 21.809C9.29627 22.3895 10.3659 23.4785 10.922 24.8408Z" fill="black"/>
</g>
<defs>
<linearGradient id="paint0_linear_10161_5303" x1="160.925" y1="193.485" x2="160.925" y2="38.8239" gradientUnits="userSpaceOnUse">
<stop stop-color="#808080" stop-opacity="0.25"/>
<stop offset="0.54" stop-color="#808080" stop-opacity="0.12"/>
<stop offset="1" stop-color="#808080" stop-opacity="0.1"/>
</linearGradient>
<clipPath id="clip0_10161_5303">
<rect width="300" height="244.647" fill="white"/>
</clipPath>
</defs>
</svg>
